<svg id="Layer_1" data-name="Layer 1" xmlns="http://www.w3.org/2000/svg" viewBox="0 0 736.17 274.3"><defs><style>.cls-1{fill:#fff;}.cls-2{fill:#897e7e;}</style></defs><title>te17_logga_isak</title><path d="M217.5,225.29a2.68,2.68,0,0,1,.62-.62l1.86-1a11.42,11.42,0,0,1,3.19-1.6,9.2,9.2,0,0,0,3.54-1.95.47.47,0,0,1,.18-.09l.8.53a2.33,2.33,0,0,1-.8,1.37l1,.53a5.5,5.5,0,0,0-1.9,1.82l-1.15,3.41-1.2,1.2L227.2,230l-.31.35a.25.25,0,0,1-.18.09h0l-1-.36c0,.65.09,1,.18,1s.38.35,1.06.62l.27.35v7.8l0,1a3.57,3.57,0,0,1-.27.53,5.38,5.38,0,0,0-.35,1.15q.93.53.93,1.06a3.83,3.83,0,0,1-.22,1.2,11.52,11.52,0,0,1,3.32-.75,12.55,12.55,0,0,1,4.25.8,6.9,6.9,0,0,1,1.55,1.59q.27.13,2.57.8l4.92-2,.13,0a3.37,3.37,0,0,0,.93,1.51l1-.71,1,.18a1.24,1.24,0,0,1,.71-.4,1,1,0,0,1,.4.13l.71-.75V245a3.21,3.21,0,0,1,.89.27,4.56,4.56,0,0,0,1.28.4h0a13.51,13.51,0,0,1,1.73-.4l3.94.13h1.15l1-.09a25.18,25.18,0,0,0,3-.09,6.34,6.34,0,0,0,1.2-.49,12.86,12.86,0,0,0,1.33.31,10.91,10.91,0,0,0,1.37-.31l1.2-.09q1.77-.49,1.86-.49a2.35,2.35,0,0,1,1.2.53h.84a2.19,2.19,0,0,1,1.06.27,2.57,2.57,0,0,0,1.33.4,7.72,7.72,0,0,1,1.46-1.51,16.86,16.86,0,0,1,3.41-.27l1.77-.13,1.2.18,1.64-.13,1.28.09a.94.94,0,0,0,.93-.66,13.15,13.15,0,0,0,.49-1.82q-1.11-2.17-1.11-2.26s.13-.52.4-1.46l0-1.95a2.82,2.82,0,0,0,.18-.75,1.61,1.61,0,0,0-.53-1l.35-1.2v0q0-.44-1.15-1a.7.7,0,0,1,0-.18,6.66,6.66,0,0,1,.31-1.37,6.88,6.88,0,0,0,.22-1.91,2.2,2.2,0,0,0-.62-1.28,2.48,2.48,0,0,0,.09-.49c0-.29,0-.65,0-1.06q-1.42-.22-1.42-1.06a.78.78,0,0,1,.22-.58,15.86,15.86,0,0,1,1.42-.93,13.74,13.74,0,0,1,1.86-1q1-.31,1.15-.71a8.34,8.34,0,0,0,1.51-.4,10.21,10.21,0,0,1,2.35-.84,2.22,2.22,0,0,1,.62.22q-.18,1.24-.27,5.8a19.69,19.69,0,0,1-.49,2.35l-1.11.13a4,4,0,0,0-.35,1.33,3.71,3.71,0,0,0,.18.88q.93.4,1.06.71l.27.62.49.93q-.27,1.64-.27,1.77a3.6,3.6,0,0,0,0,.49q.13,1.46.13,1.82a17.1,17.1,0,0,1-.49,4.87,2.22,2.22,0,0,1,.66,1.42,3.81,3.81,0,0,1-.93,1.51,5.15,5.15,0,0,0-.4,2.13l1,.13v8.81a5.5,5.5,0,0,1-.49,1.46,3.43,3.43,0,0,0-.31,1.24l.8.66a3.12,3.12,0,0,0-.27,1.11c0,.33,0,.68,0,1.06a1,1,0,0,1-.62.31,2.19,2.19,0,0,1-.44,0q.13,1.24.49,1.37a4.47,4.47,0,0,1,1,.58,18.44,18.44,0,0,0-.4,2.84,8.4,8.4,0,0,0,0,.84q.27,1.82.27,2.21a2.77,2.77,0,0,1-.4,1.11l-1-.18v.44l.71.44q.49,4.38.62,7.18-1.37.62-1.37,1.24a3.36,3.36,0,0,0,1.37,2.79,5.83,5.83,0,0,1-.35,1.42q.44,2,.44,2.08a8,8,0,0,1-.13,1.11,11,11,0,0,0-.09,1.46,6.8,6.8,0,0,0,.13,1.55,4.24,4.24,0,0,1,.13.84c0,.27-.06.41-.18.44l-3.32,1.11,3.46,1.55-.09,1a5.31,5.31,0,0,0,.27.8v0c0,.09-.12.19-.35.31q-3.41,1.51-3.41,2.57t3,2.26q1.73.67,1.68,1.37l-1.28.75a18.12,18.12,0,0,1-2.66,1.37l-1.06.4a15.36,15.36,0,0,1-2.3,1.68,4.52,4.52,0,0,1-1.28.31q-.8,0-.8-.49l0-2.83a3.52,3.52,0,0,0-.22-1,4.34,4.34,0,0,0,1.15-1.77,13,13,0,0,0,.13-2.3c0-.8,0-1.31,0-1.55a2.57,2.57,0,0,1,1.28-2.13l2.57-1.37a16,16,0,0,1-3.37-1.46,24.39,24.39,0,0,1,3.46-1.77l-3.1-3.23a4.51,4.51,0,0,0,.66-2.21v0a3.55,3.55,0,0,0-.22-.93,4.1,4.1,0,0,1-.22-.93l.13-7.62s0-.25-.09-.66q1.11-.8,1.11-1.24a2.18,2.18,0,0,0-.35-1,5.66,5.66,0,0,1-.44-1.24l-1-.27q.35-2,.35-2.17,0-4.87,0-5.94h.27a2.41,2.41,0,0,0,.49-1.29c.06-.65.13-1.24.22-1.77a2,2,0,0,1-.8-1.29V256.6s0-.34,0-.93l-.18-2.35c0-.12.09-.75.27-1.9a2.32,2.32,0,0,1,1.77-2.17l.27-1.06h-.35a2.61,2.61,0,0,1-1.37-.53q-3.06,0-4,.18-1.37.13-1.59.13t-2.88-.22q-.93-.09-2.08-.09t-2.79.09l-.8,0q-1.55.09-1.82.13a18.07,18.07,0,0,1-1.9.22,3.12,3.12,0,0,1-1.46-.58,1.58,1.58,0,0,0-2.7,0,2.44,2.44,0,0,1-1.55.49l-3.15-.13h-1a17.36,17.36,0,0,0-3.5.44l-4.43.13q-.22,0-1.59-.22a7.36,7.36,0,0,1-2.17,1.06q-.13,0-3.23-.49l-1.33-1.9-1.82,2-2.08-.36-1.11.36h-1.28l-2.48.18-1.11-.09a23.25,23.25,0,0,1-2.39-.13,3,3,0,0,0-.49,0,2.05,2.05,0,0,0-1,.4v6.47a23.05,23.05,0,0,0,.13,3.32,9.83,9.83,0,0,1,.18,1.51v0a3.86,3.86,0,0,0,0,.62l.09,2.35a.92.92,0,0,1-.18.27,3.67,3.67,0,0,0-.4.75l.27,1.55a2.84,2.84,0,0,1-.27,1v0q.4,2.66.4,2.83a10,10,0,0,1-.93,3.37,2.19,2.19,0,0,1,.75,1l.13.75a4.19,4.19,0,0,1,.27.62,1.69,1.69,0,0,1,.18.62s0,.58-.13,1.64l-.71,1.33V282a11.94,11.94,0,0,0-.27,2.08,2.1,2.1,0,0,0,.13.93,2,2,0,0,0,1.15.71,19.25,19.25,0,0,0-.4,3.37l-.13,1.46.18,2.75v8.19l-.13.58-.62.4.49,1q-.8.57-1.06.8a13.31,13.31,0,0,1-3.23,1.9l-.09-.13v-.18q-1.59,0-1.77.35a2.49,2.49,0,0,0-.62,1l-1.55.18a15.36,15.36,0,0,0,.09-2.08,9.51,9.51,0,0,1,.58-2.53,5.93,5.93,0,0,1,.09-1.46,11.16,11.16,0,0,0,.49-3.45l.18-5.4q0-.93.22-1.06l.75-.62a.81.81,0,0,0,.22-.66,10.37,10.37,0,0,0-.13-1.51H221a2.39,2.39,0,0,1-.31-1l.22-1.95v-2.17q.22-.89.49-2.13a3.31,3.31,0,0,0,1.33-.53l-.18-2.75-1.06-.09a24.29,24.29,0,0,1-.13-3.32,16.74,16.74,0,0,1-.44-2.61q0-.53.35-3.28a14.06,14.06,0,0,0,.09-1.64q0-.8-.09-1.68a16.75,16.75,0,0,1-.18-2.08,1.28,1.28,0,0,1,1.2-1.37q-.09-1.11-.09-1.46a3.94,3.94,0,0,0-.13-1.28,2.56,2.56,0,0,0-1.24-.84q.18-1,.44-2.35a6.22,6.22,0,0,0,.09-1,10.92,10.92,0,0,0-.62-2.13q.18-1,.18-1.11v-.18l0-4.65,0-.44a2.18,2.18,0,0,1,.35-1l.62.18a5.2,5.2,0,0,0,.13-1.06,7.51,7.51,0,0,0-.93-2,1.21,1.21,0,0,1-.13-.62,4.19,4.19,0,0,1,.75-1.91l-1-.09-.27-1.42.71-.22.13-1.64a2.28,2.28,0,0,1-1-1.29,11.23,11.23,0,0,1-.35-2.48,3.09,3.09,0,0,1,.18-1.06,3.05,3.05,0,0,0,.27-.93l-.31-1.33.09-1v0a3.12,3.12,0,0,0-.4-1.11q-.13-.31-.49-1.2-.84,0-.89-.18Q218.07,226.17,217.5,225.29Z" transform="translate(-36.87 -121.39)"/><path d="M313.17,278a3.66,3.66,0,0,1,1-1.15,13.38,13.38,0,0,1,2.66-.71,19.35,19.35,0,0,1,2.26-1q.4-.09,2.66-.31l1.42-.49.84-.09.8-.09h1.73l3.5-.44a5.1,5.1,0,0,0,1.95-.4,1.94,1.94,0,0,0,.8-1.68,8.71,8.71,0,0,0-.35-1.42l2.3-2.88s-.92-.33-2.75-.89a5.43,5.43,0,0,0-1.33-.09,26.31,26.31,0,0,0-2.26-2.7A27,27,0,0,0,325,263h-1.42a6.33,6.33,0,0,0-1.28-.27,8.37,8.37,0,0,0-1,.09l-.84-1.06a3.51,3.51,0,0,0-1.51,1,3.54,3.54,0,0,1-1.37.84,16.35,16.35,0,0,0-3.81,2.17l-.62.4a3.85,3.85,0,0,1-.75.93,2.41,2.41,0,0,1-1.24.31,8.45,8.45,0,0,1-1.64-.49,8.08,8.08,0,0,1-1.86-.58,4.86,4.86,0,0,1-1-1.11q.75-.58,1.06-.84a3.05,3.05,0,0,1,1-.71l2.08-.49,1.33-.71,2.83-.89,1.77-.75h1.82l2-.58.84,0,1.55-.27,2.75,0a12.75,12.75,0,0,1,2.39.62l1.06.13,2.44.44a3,3,0,0,1,1.59,1q-.75.67-.75,1.11c0,.41.18.62.53.62a2.44,2.44,0,0,0,1-.35q.44-.18,1.24-.4a2.19,2.19,0,0,1,.62,1.51l1.11.8a4.81,4.81,0,0,1,.09.62l-.13,1.73a6,6,0,0,0,1,2.44h.18q.13,1,.35,2.13.13,2.57.18,3.41-1,.62-1,1.2t1.2,1.2c0,.38,0,.71,0,1a12.75,12.75,0,0,1-.18,1.55q0,.49,0,1a17.09,17.09,0,0,0,.49,3.63,2.3,2.3,0,0,0-.8,1.6,3.31,3.31,0,0,0,.75,1.73,8.91,8.91,0,0,1,.31.84l.49,1.2a4.3,4.3,0,0,0-.71,1.11,5.12,5.12,0,0,1-1.37.71l-1.68.75-1.06.31a14.18,14.18,0,0,1-1.82.58,1.52,1.52,0,0,1-1-.49l.66-3a25,25,0,0,0-3.72,1.37l-1.28.27-1.2.27-1.64-.18-1.64.84-.89.09-3.59.75-1.86-.13a7.05,7.05,0,0,1-1.86.49,26.77,26.77,0,0,1-3.46-.58l-1.86-.18-1.37-.58a9.11,9.11,0,0,1-2.3-1.15,3.32,3.32,0,0,1-1.06-1.68l-1-.35a10,10,0,0,1-.4-1.59l-.44-1.91v0a2.33,2.33,0,0,1,.58-1.28,15,15,0,0,0,1.24-2.26q2.17-2.13,2.88-2.75a14,14,0,0,1,2.79-1.37,4.77,4.77,0,0,1,1.55-.8A4.84,4.84,0,0,1,313.17,278Zm-2.75,9.39q-.36.58-.66,1.2a2.14,2.14,0,0,0-.44,1.06l.44.84,1.24-1.06a6.57,6.57,0,0,0,2.08,1.15l1.77.49a3.58,3.58,0,0,1,.75.93l1.37.18a4.67,4.67,0,0,0,.58,0,2,2,0,0,0,1.2-.62,2,2,0,0,0,1.06.44,5.86,5.86,0,0,0,1-.58l1.24.27,2.39-.84,1.15-.53,1,.18,1.68-.71,1.95-.75a13,13,0,0,1,.93-1.33,3.6,3.6,0,0,1,1.55-.71l.27-1.42a1.85,1.85,0,0,0,1-1.24,2.88,2.88,0,0,1-.89-.93q0-.75,0-1.11v-.71q0-1.2-.09-2a3,3,0,0,1,0-.49,5.2,5.2,0,0,1,.35-1.55,2.23,2.23,0,0,1-1-.53l-1.9,0-1.73-.09-1.33,0h-.84a5.74,5.74,0,0,1-1.33-.71l-1,.31a9.44,9.44,0,0,0-2.61.27,2.4,2.4,0,0,1-.89.22,10.31,10.31,0,0,1-1-.27h-.09a5.24,5.24,0,0,0-1.42.8,21.07,21.07,0,0,1-2.3.89,16,16,0,0,0-4.08,2.35q-.13.13-1,1.33a2.92,2.92,0,0,1-1.55.75,1.09,1.09,0,0,0-.18.49c0,.09.12.27.35.53l.31,2.39A3.46,3.46,0,0,0,310.43,287.34Z" transform="translate(-36.87 -121.39)"/><path d="M351.58,263.78a3.53,3.53,0,0,1,2.26-2.39q2-1.64,3-1.64t1.28.53a16.27,16.27,0,0,1,.13,2.57,6.46,6.46,0,0,0,1,2.39q1.77-2.26,2.08-2.21l1.55-1a6.1,6.1,0,0,1,2.26-1.46c.38,0,.77.33,1.15,1a8.21,8.21,0,0,1,4.83-1.77,2.42,2.42,0,0,1,.84.13l.89.27a10.32,10.32,0,0,1,2.08-.62,15.47,15.47,0,0,1,2.48.49,16.92,16.92,0,0,0,2.21.35q.62.75.89.8l1,.18q1.15.18,2.7,2.48.93,1.46,1,6.47a6.36,6.36,0,0,0-2.17.4q-1.11.4-1.11.75s1,.58,3,1.64q.35.18.35.89a8.47,8.47,0,0,1-.84,2.7.62.62,0,0,0,0,.27q0,.53.93,1.42a11.57,11.57,0,0,0-.13,1.59,10,10,0,0,0,.66,2.26l.09,2.44.13,2.13-.13,1.86a5.86,5.86,0,0,0,.44,1.64,17.47,17.47,0,0,1-1.68,1.15q-.22.13-2,.84-.35.18-1.95,1.24a3.54,3.54,0,0,1-1.24-2.17q0-.31.8-3.46a10,10,0,0,0,.09-1,6.29,6.29,0,0,0,0-.67l.89-.31q2.21-.31,2.26-.53l-.49-.31a10.9,10.9,0,0,0-3.32-1.15,4.9,4.9,0,0,1,.66-2.3l1.33-1.24a2.79,2.79,0,0,0,1.06-1.86,12.24,12.24,0,0,0-2.92-1.28l.13-1.59-.22-2.35a2,2,0,0,1,.13-.35,8.29,8.29,0,0,0,.35-1.28c-.47-.53-.71-.89-.71-1.06l0-2.21a2.11,2.11,0,0,0-.71-1.2,2.22,2.22,0,0,1-.71-1.51l-.22-.27a3.25,3.25,0,0,1-1.2-.49l-1.24-2.13a1,1,0,0,0-.8-.58,3.1,3.1,0,0,0-1.82.89,4.76,4.76,0,0,1-2.92,1.42,17.07,17.07,0,0,1-1.82-.36l-.84.84v.22q-.93-2.21-1.86-2.21a3.75,3.75,0,0,0-.49.18,6.28,6.28,0,0,1-1.37.49,9.85,9.85,0,0,0-2.39,1.2,7.53,7.53,0,0,0-2.52,1.82,3.75,3.75,0,0,0-.71,2.08s0,1,.09,2.83v.18q0,.8-.35,1l-2,1.46c-.21.15-.31.29-.31.44s.27.59.8.88a13,13,0,0,1,2,1.2,1.3,1.3,0,0,1,.22.84q0,.13-.09.89l.09,3.28a3.88,3.88,0,0,1-.8,1.33.93.93,0,0,0-.09.49,2.45,2.45,0,0,0,.93,1.68l-.13.13q.09,1.06.09,1.42a14.84,14.84,0,0,0,.71,4,2.11,2.11,0,0,1-.89,1.11,8.55,8.55,0,0,1-1.46.27,1.43,1.43,0,0,0-.62.22,6.23,6.23,0,0,1-.71.27q-.31,0-.66.62a1.15,1.15,0,0,1-1,.53q-.27,0-.8-.62a1.05,1.05,0,0,1-.35-.75,4.08,4.08,0,0,1,.09-.8,12.65,12.65,0,0,0,.31-1.55l0-3.37a9.25,9.25,0,0,0,.4-1.51,4,4,0,0,0-.18-1.06,6.15,6.15,0,0,1-.22-1.2q0-.18.09-.89c0-.29,0-.55,0-.75q0-.57,0-1.68,0-.53,0-1.06a4.63,4.63,0,0,1,.31-1.46l1.24-.58a1.24,1.24,0,0,0-.31-.62,5.21,5.21,0,0,0-1.42-.22q0-.84,0-1.37a8.16,8.16,0,0,1,.18-1.33,2.78,2.78,0,0,0,0-.53,26.12,26.12,0,0,0-.49-3.76l1-.58a14.36,14.36,0,0,1-.93-1.46,3.59,3.59,0,0,1-.18-1A4,4,0,0,0,351.58,263.78Z" transform="translate(-36.87 -121.39)"/><path d="M419.92,276.89l-1.15.84a10.79,10.79,0,0,0-2.75-.49,28.38,28.38,0,0,0-2.88.18,3.63,3.63,0,0,0-1.33-1.55L411,277a18.22,18.22,0,0,0-2.21.49,4,4,0,0,1-.93.13,1.16,1.16,0,0,1-.27,0l-1.68-.35s-.07,0-.13.13l-.84-.89a3.11,3.11,0,0,1-1.2.31,4.69,4.69,0,0,1-1.11-.44l-.8-.31q-3.41-1.2-3.41-3.9a7.49,7.49,0,0,1,1.82-4.65,18.47,18.47,0,0,1,2.48-2.35l.89-.84,2.08-1.24a38.73,38.73,0,0,1,4.69-2.57,15.62,15.62,0,0,1,5.54-1.42q.35,0,4,.93l2.3-.4a10.8,10.8,0,0,1,2.52.31q.89.45.89.89a1.28,1.28,0,0,1-.44.89L423,263a12.17,12.17,0,0,1-2.39,1.28,16,16,0,0,1-4.21-.4,7,7,0,0,0-.93-1.51h-.27l-.84.89-1.11,0a6.1,6.1,0,0,1-.75,0l-.71,0c-.06,0-.44.09-1.15.27a2.37,2.37,0,0,0-1.33-.27,25.78,25.78,0,0,1-2.92,1.77,5.23,5.23,0,0,0-1.84,1.73,3.93,3.93,0,0,0-.78,2.17c0,.33.28.74.84,1.24a9.19,9.19,0,0,0,1.55.71,15,15,0,0,1,1.73,1,4.88,4.88,0,0,0,0,.58q0,.93.75.93t1.59-1.15a13.64,13.64,0,0,0,1.73.13q.27,0,2.52-.4l1.42.13q1.95-.26,2.13-.27a14.44,14.44,0,0,1,2.26.62l1.59-.18,1.59,1.11a10.92,10.92,0,0,1,3.5,2.26,3.54,3.54,0,0,1,.8,1.42l.31,1.46a26.47,26.47,0,0,1,.62,3.06q0,.27-.18,1.55-.22,2.83-1.64,2.83a4.64,4.64,0,0,1-1-.13,6.86,6.86,0,0,1-.89,2.52q-2,2.3-2.57,3.1a8.1,8.1,0,0,0-3.72,1.37,5,5,0,0,1-.8.58,9.46,9.46,0,0,1-1.11.13l-3.59,1q-1.77-.31-1.95-.31a23.11,23.11,0,0,0-2.66.71l-1.06-.13a24.5,24.5,0,0,1-3.19-.35,6.68,6.68,0,0,1-2.44-.84l-1.42-.93a16.84,16.84,0,0,1-3.23-2.3,4.7,4.7,0,0,1-1.33-3q0-.31,1-1.06l1.2-1.11a7.91,7.91,0,0,1,1.95-1.24.42.42,0,0,1,.31.13,2.9,2.9,0,0,1,1,2.13l-.18,1.42v0a.66.66,0,0,0,.22.62,12.57,12.57,0,0,0,1.59,1,6.44,6.44,0,0,1,.8.58q1.11,1,1.15,1l1.64.66,1.51.8h1.68l1.06.22a11.89,11.89,0,0,1,2.92-.53,4.34,4.34,0,0,0,1.82-.35l1.73-.84a8.46,8.46,0,0,0,1.64-.66,12,12,0,0,0,2.21-2.92,10.16,10.16,0,0,0,1.42-5.36,2.14,2.14,0,0,0-.4-1.24Q420.41,277.86,419.92,276.89Z" transform="translate(-36.87 -121.39)"/><path d="M466.74,267a8.31,8.31,0,0,0,3.68-2.48q-2.26-.58-2.26-1.95c0-.24,0-.53,0-.89l-1.68.4a4.55,4.55,0,0,0-1.2-1.37A12.18,12.18,0,0,1,464,259l.18-1.28-.84-.49.75-1.95h-.22q0-.44,0-.75a3.58,3.58,0,0,1,1.11-2.26h.93a4.64,4.64,0,0,1,.58-1l1.33-1.11,1.33-1.37a6.2,6.2,0,0,1,1.06-.4l.44-1,1.55-.18a3,3,0,0,1,1.28-1.2l2-.58,1.15-.53.8-.31a12.19,12.19,0,0,1,3.32-1.46,13.48,13.48,0,0,1,1.55,2.08l2.08-2.17a1.92,1.92,0,0,1,1.42-.49,4.14,4.14,0,0,1,2.52,1.46,5.33,5.33,0,0,1,1.15.89,5.92,5.92,0,0,1,.27,1.24,5.19,5.19,0,0,0,.8,1.51q-.35.8-.75.8-.22,0-1.73-1.68l-2.44-1.24-.84-.53q-.58,0-.71,2.35l-1.11-.62-.53.89-.27,0a5.06,5.06,0,0,1-1.24-.31,1.34,1.34,0,0,0-.49-.13,3.54,3.54,0,0,0-1,.22,11.32,11.32,0,0,1-1.29.31,3.06,3.06,0,0,0-1.2-.4,6,6,0,0,0-1.37.53l-1.51.44-.93.49a7.12,7.12,0,0,0-1.2.53q-.27.18-2.08,1.82-1.73,1.29-1.79,1.35a7.7,7.7,0,0,0-.38,1.26q-.35,1.42-.53,2a5.25,5.25,0,0,0,1.06,1.15,2.49,2.49,0,0,1,.84,1.46,7.09,7.09,0,0,1,1.15.66,9,9,0,0,0,1.86.93l2.79.71,1.11,0,1.42.49a35.3,35.3,0,0,1,3.81.13,9.06,9.06,0,0,0,1.2.09,10.46,10.46,0,0,0,2.3-.75l2.57-.13q1.33-.35,1.46-.35a2.93,2.93,0,0,1,1.28.49,11.09,11.09,0,0,0-.89,2.3,1.23,1.23,0,0,1-.8.93l-2.86,1.13a7.08,7.08,0,0,0-1,.78,4.85,4.85,0,0,1-1.24-.93,2.28,2.28,0,0,0-1.11-.58l-.66.44q-1-1.9-1.29-1.91t-.71,1.91q-.93-1.86-1.73-1.86a.73.73,0,0,0-.53.22l-2.08,2.48-.93-.27a4.33,4.33,0,0,0-1.51.44l.49,1L473,267h-.58a2.79,2.79,0,0,0-1.11.18,16.4,16.4,0,0,0-1.46,1q-2,1.11-2.17,1.24a10.5,10.5,0,0,0-.89,1.33,11,11,0,0,0-1.37,1.46,3.76,3.76,0,0,1-1.86,1.11,10.66,10.66,0,0,1-1.15,2.79,15.68,15.68,0,0,0-.58,1.55q0,.31-.18,2.13l-.27,1,.4,1.11a7.48,7.48,0,0,0,.84,2.57,4.22,4.22,0,0,1,.22.53,3.76,3.76,0,0,0,1.46,1.73,3.67,3.67,0,0,0,.62,1.24l1.29,1.15a34,34,0,0,0,2.57,2.48,11.25,11.25,0,0,0,2.3.88,7,7,0,0,0,1.42.09l1.86.49h1.37l1.51.09.62,0,1.86,0,.93-.4,1.29-.4,1.42-.71,2.17-.66a3.43,3.43,0,0,1,1-.31h.4a4.38,4.38,0,0,1,.62-.89l3.06-2a11.07,11.07,0,0,0,1.86-2.26,7.41,7.41,0,0,0,1.42-4.47,2.83,2.83,0,0,0-1.64-2.44q-1.29-.75-1.33-.8l-.62-.84-1-.62-1.51-1.33-1.51-.49-1.59-.66-.66,0-.75-.49-1.64.49a5.63,5.63,0,0,0-1.82.44q-.53.13-2.08,2.92a12.52,12.52,0,0,1-.71,1.24l.53,1.15q0,1-1.51,1a5.23,5.23,0,0,1-.66,0,4.32,4.32,0,0,0-1.46-1.06,1.27,1.27,0,0,1-.71-1.24,2.44,2.44,0,0,1,.58-1.62,20.43,20.43,0,0,1,2.52-2.24l1.68-1.46,2.7-1.06,1.11-.62,1.28-.36,1.15-.44,1.42-.18,1.06-.13,1.55.35.75.09,1.37.53a8.55,8.55,0,0,1,1.95.93q.13,2.26,1.15,2.26a.61.61,0,0,0,.44-.27v-1l1.15.71a15.84,15.84,0,0,0,2.92,1.55q.93.44,1,.44a4.6,4.6,0,0,0,1.48-.35,6.69,6.69,0,0,0,1.57-.8,14.5,14.5,0,0,1,1.77-1.11q1.42-.67,1.33-3l.27-1.64q0-.67-1.15-1.86a2.25,2.25,0,0,1-.71-1.24,9.37,9.37,0,0,1,2.83-1.15l.75,1.29a5.91,5.91,0,0,1,2.17.84l.27,1.06,1.2.18q-.09.93-.09,1.24a7.76,7.76,0,0,1-.8,3.68l-1.28,1a6.93,6.93,0,0,1-2.75,2.44l-.71.53q-.89.09-1.06.13l-1.29.84a12.14,12.14,0,0,0-3,.93,1.35,1.35,0,0,0-.58,1.11,3.52,3.52,0,0,0,.53,1.42c-.53.38-.81.66-.84.84a7,7,0,0,1-.62,2.39l-1.73-.18a2.22,2.22,0,0,0,.67,1.59,13.59,13.59,0,0,1-1.59,1.42l-1,1.06-1.73.89a4.18,4.18,0,0,0-1,1.2h-.35a6.05,6.05,0,0,0-1.15.35l-.18,0-.62.4-1.64.71a17.51,17.51,0,0,1-3.63,1.91l-2.3.62-1.42.53-3.59.49-3.9.71a5.1,5.1,0,0,1-1.64-.53q-.58.71-1,.71a10.64,10.64,0,0,1-1.11-.09c-.15,0-.37-.06-.66-.09a3.45,3.45,0,0,1-1.86-.49,12.14,12.14,0,0,0-1.64-1.46l-.49,1a7.87,7.87,0,0,1-2.52-1.46l-1.9-1.68a15.54,15.54,0,0,1-1.59-2.3s.1-.66.31-1.9l-.09-.13-.18-.44a19.16,19.16,0,0,1-1.77-.89.42.42,0,0,1-.13-.31v-.75l0-.49q1.28-.18,1.29-.8c0-.47-.33-.71-1-.71h-.4a2.51,2.51,0,0,1-.35-1.42,5.29,5.29,0,0,1,.49-1.51l.27-1,.58-1a6.54,6.54,0,0,1,1-2.3q.84-1,.89-1.11a6.25,6.25,0,0,1,.66-1.11l.71-.49c.06-.06.24-.28.53-.67a6,6,0,0,1,2.08-1.51,2.54,2.54,0,0,0,.93-1.11q.44-1,.49-1l1.06-.93A1.67,1.67,0,0,0,466.74,267Z" transform="translate(-36.87 -121.39)"/><path d="M536.33,270.33l1.37-.4a23.2,23.2,0,0,0-.53-2.66H536q.18-.93.44-3.72l.4-1.24q.93-4,1-4.12.27-.8.89-2.21h1.95l.31-1.55q-1.46,0-1.46-.8t2.7-5.18l.75-1.2,1.77-2.17,1.15-1.91a9.83,9.83,0,0,1,.93-.89,2.22,2.22,0,0,0,1.11.49,2.17,2.17,0,0,0,.93-.35l-.31-2q1.82-1.73,2.35-2.26a22.82,22.82,0,0,1,3.23-2.75l1.11-1.06,1.11-.75.75-.84,3.68-2.35a34,34,0,0,1,2.92-2.3,4.32,4.32,0,0,0,1.33,1q1-.49,1.11-.75.13,0,.27-1a23.09,23.09,0,0,1,2.92-1.37l1.64-.8,2.66-.89,1.28-.49a10,10,0,0,0,2.7-.44q2.61-.75,5.67-1.37l1.11-.35,1.28-.13.89,0,1.64,0s.58-.19,1.64-.58a1,1,0,0,1,.35-.09q.18,0,3.85,2,1.37-1.86,1.73-1.86h0a22.23,22.23,0,0,0,3.06.18l3.9.18a13.72,13.72,0,0,0,3.37.49l.58.62h.22a1.88,1.88,0,0,1,.89-.49q.4,0,1.11.75a1.2,1.2,0,0,1-.49.8,11.48,11.48,0,0,1-1.15.62,9,9,0,0,0-1.42.93,4.73,4.73,0,0,1-1.95,1.15,17.67,17.67,0,0,1-2.66-.44l-1.95-.71-2.83-.27a6.49,6.49,0,0,0-2.17-1,.55.55,0,0,0-.4.18q-.62.58-.75.53l-.49-.22-2.08-.4-1.42-1.37-1.64,1.73a1.48,1.48,0,0,1-1,.4l-1.46-.18-3,1a6.55,6.55,0,0,0-1.82-.62,7.75,7.75,0,0,0-2.39,1.06,9.74,9.74,0,0,1-2.48.22q-.09.8-.4,1-1.86.62-3.76,1.42a17.66,17.66,0,0,0-2.92,1.73L566,231.62a4.12,4.12,0,0,0-.8,1,6.18,6.18,0,0,0-1.51-.27l-.58,0a3.84,3.84,0,0,1-1.06,2q-.27.22-1.33,1a3.12,3.12,0,0,1-1,.4c-.09,0-.25.19-.49.58a7.16,7.16,0,0,1-1.68,1.68l-1.11-.35.22,1.2q-.93.71-1.33,1.06-.13.13-1.24,1.73a28.55,28.55,0,0,0-1.86,2.61q-.93,1.59-1.86,2.92l-1.06.13a4.14,4.14,0,0,1-.8,1.37l-.09-.13-.4,0-.13.49.53,0a4.61,4.61,0,0,1-.09.82q0,.11-.71,1.31-1.68,4.25-1.75,4.36t-.69.82a19.46,19.46,0,0,1,.18,2.44,8.93,8.93,0,0,1-.84,2.52,9.92,9.92,0,0,0-.67,3q-1.33.31-1.55,1.11,1.46.89,1.46,1.51v.09q-.31,2.75-.31,3.28a19.82,19.82,0,0,0,.27,2.08q-1.28.75-1.28,1.73a2.09,2.09,0,0,0,.62,1.33l.89-.13a13.5,13.5,0,0,0,.53,2.17,7.26,7.26,0,0,1,.22,1.11q-1.64.44-4.34,1.11l-.27,0q0,.22,3.68.53l1.33.31a10,10,0,0,0,.89,4.3l0,.09q-.53,2.88-.53,2.92a.43.43,0,0,0,.49.49A1.81,1.81,0,0,0,547,288a12.74,12.74,0,0,0,.93,1.42,6.77,6.77,0,0,1,1,1.95l.35,1.64q.09.4.93.93a7.32,7.32,0,0,1,2,1.77,17.94,17.94,0,0,0,2.13,2.13q.58.49.8.71a8.7,8.7,0,0,0,.78.73q.11.07,1.13.42a2.14,2.14,0,0,1,1,.49l.4.62.31-.35a15,15,0,0,0,4.08,3.14q.71.35,2.26,1.06a13.37,13.37,0,0,0,1.68.71q1.06,0,2.75-2.26a5.26,5.26,0,0,0,3.5,1.15,3,3,0,0,0,1.11-.18q1-.4,1-.4l.75.18a2.77,2.77,0,0,0,.53,0l5.23-.18q1.37-.09,1.68-.09t1.82.09a5.07,5.07,0,0,0,.71,0,22.32,22.32,0,0,0,2.52-.22,2.81,2.81,0,0,1,.75-.8q.09,0,4.12-.49,2.66-.53,2.88-.53a6.62,6.62,0,0,1,1.46.58.62.62,0,0,0,.27,0q.84,0,1.15-1.51a11.91,11.91,0,0,0,1.51.13,24,24,0,0,0,3.23-.62l2.26-.27q2.53-.8,3.46-1a2.41,2.41,0,0,1-.09-.49c0-.5.16-.8.49-.89l3.72-1.06-3.76-2.3,3.68-2.08-3.81-4.52.09-.27a7.11,7.11,0,0,0,.4-2.57q0-.44-.49-3.23l-.09-4.87v-.44q0-1.42.8-1.73l2.75-1.11c.09,0,.13-.07.13-.13s-.06-.07-.18-.13a6.23,6.23,0,0,0-3.1-.8h-.75a4.65,4.65,0,0,0-1.59-3.23,1.44,1.44,0,0,0-.8-.27,6.85,6.85,0,0,0-1,.09l-.66-.44h0l-1.15.31a36.52,36.52,0,0,1-4.61.13,7.76,7.76,0,0,1-1.24-.27,1.46,1.46,0,0,1-.89.4c-.47,0-.71-.22-.71-.66s.46-1,1.37-1.73a4.4,4.4,0,0,1,1.28-.8,9.34,9.34,0,0,1,1.33,0,9.52,9.52,0,0,1,1.82.09l2.3.8a.76.76,0,0,0,.31,0,2.61,2.61,0,0,0,1.55-.84,14.84,14.84,0,0,0,2.57.35,5.23,5.23,0,0,0,.66,0q1.06-.13,1.24-.13l1.68.22h0q1.51-.27,2.92-.49a5.61,5.61,0,0,1,.89,1.86v.09q-.31,2.39-.31,2.48c0,.15,0,.37,0,.67a21,21,0,0,1,.27,3.28q0,.8-.09,3.76a18,18,0,0,1-.4,2.53q-.18.75-.31,1.68h-1a9.89,9.89,0,0,0-.66,2.17,11,11,0,0,0,.22,1.59,3.22,3.22,0,0,0,1.2-.67,2.77,2.77,0,0,0,.62-1.06,1,1,0,0,1,.71.49l-3.72,1.46,3.68,3.06-.18.31a4.34,4.34,0,0,0-.31,1.11l-.93.4a4,4,0,0,0,.93,1.42,1.18,1.18,0,0,0,.58.09,4.51,4.51,0,0,1,.49,1.06s0,.63-.09,1.82v.31a3.79,3.79,0,0,0,.22,1.55,9.18,9.18,0,0,1,.4.84l-.31,1a1.8,1.8,0,0,0-.09.58,6.33,6.33,0,0,0,0,.71l-1.33.31a3.17,3.17,0,0,1-.93,1.15q-.13,0-3.72.09a24,24,0,0,1-3.9.89,8,8,0,0,1-1.77-.27l-.58.53q-1.2.09-5.62.84h-.09a3.85,3.85,0,0,1-.53,0,3.78,3.78,0,0,0-.71-.09,8.82,8.82,0,0,0-2.61.89,18.47,18.47,0,0,1-3.5.18l-2.39.58a11.08,11.08,0,0,1-2.26.27l-3.59.84-1.64.09q-4.12.67-7.49,1-.71-.75-1.06-.71l-.84.09-1.37.13-.66.49q-.13,0-5,0l-1.37-.13q-1.11-.13-3.28-.18a4.33,4.33,0,0,0-1.33-1,10.51,10.51,0,0,0-1.55-.22l-.27.75q-4.61-1.33-5.94-2.79a22.28,22.28,0,0,0-2.39-2.21,3.79,3.79,0,0,0-1-1.9c-.41,0-.75,0-1,0a2.05,2.05,0,0,1-1.2-.31,18.33,18.33,0,0,1-2.53-2.88q-.58-.67-1.82-1.9a8.9,8.9,0,0,0,.44-2.17q0-1.24-1.11-1.24a5.33,5.33,0,0,0-1.11.13,13.32,13.32,0,0,0-1.15-2.13l-.22-.75-1.95-5.45a9.58,9.58,0,0,1-.62-2.92v-.18c.09-.62.13-.94.13-1a15.89,15.89,0,0,0-.35-1.64q0-.13-.18-3.81a10.14,10.14,0,0,0-.22-1.68,6.19,6.19,0,0,1-.09-.89A2.43,2.43,0,0,1,536.33,270.33Z" transform="translate(-36.87 -121.39)"/><path d="M629.26,263.38a4.27,4.27,0,0,1,.84-1.46,8.77,8.77,0,0,1,2.3-1.37,10,10,0,0,1,2.17-1.2,1.36,1.36,0,0,1,1.2.58l.18.75.35,1.37a3.08,3.08,0,0,0-.13.75,1.5,1.5,0,0,0,.49.93,13,13,0,0,0,2.39-1.11l1.86-.62,1.86-1.24,1.2-.49a7.46,7.46,0,0,1,1.06-.49l1,.18h.13a31,31,0,0,0,3-.93,6.07,6.07,0,0,1,1.33-.09,1.9,1.9,0,0,1,1.06.22l.93.89a4.64,4.64,0,0,0,.62.13,10.56,10.56,0,0,0,1.29-.62.51.51,0,0,1,.22,0,2.16,2.16,0,0,1,1.33.66,3.58,3.58,0,0,1,1,1.9,23.69,23.69,0,0,1-2.66,2.08q-1,1.24-1.42,1.24-.71,0-1.86-1.42a12.29,12.29,0,0,1-1.33.09,6.07,6.07,0,0,1-1.91-.53,9.35,9.35,0,0,0-2.17-.53,1.69,1.69,0,0,1-1.46,1,10.71,10.71,0,0,0-1.55.18l-1.77.53a1.94,1.94,0,0,1-.71-.31q-.89.8-3.1,2.39-1.42,1-1.37,3.59v1.55q0,.8,0,1.33t-1,1.46a2.22,2.22,0,0,1,.75,1.37,4,4,0,0,1-.09.75l.66.18.13,1.33.22,7.93-.18.49-1.15.62a7.5,7.5,0,0,0-2.48.66,8.94,8.94,0,0,0,2.79.58l.75-.18a8.53,8.53,0,0,1,.44,2,1.76,1.76,0,0,1-1,1.59,8.5,8.5,0,0,1-2.26.44,10.59,10.59,0,0,0-1.9,1.11,1.09,1.09,0,0,1-.62.18q-1.06,0-1.06-.93a21.26,21.26,0,0,1,.66-2.52,1.67,1.67,0,0,0,.09-.53q0-.09-.22-2a4.41,4.41,0,0,1,.18-.75l1.06-.31a6.57,6.57,0,0,0,0-.71,2.32,2.32,0,0,0-.67-1.37v-1.11a19.57,19.57,0,0,0-.27-2.08q.13-1.46.13-2.48,1.64-.58,1.64-1.42a2.62,2.62,0,0,0-.13-.71,3.72,3.72,0,0,1-.89.13,1.31,1.31,0,0,1-.75-.35v-4.43q0-.35,0-.8v-.71a4.75,4.75,0,0,1,.58-1.9,1.88,1.88,0,0,1-.66-.84q0-.13-.18-2.88A4,4,0,0,0,629.26,263.38Z" transform="translate(-36.87 -121.39)"/><path d="M685.56,260.9,687,260a9.51,9.51,0,0,0,.93,1,5.37,5.37,0,0,0,.93.44,39.41,39.41,0,0,1,3.81,3.72,6.91,6.91,0,0,1,1.46,2.08q.35.84.75,2,.27.62.62,1.59l-.31.31a8.44,8.44,0,0,1-1.33-.4l-1.68.62-1.51-.27-1.33.35a32.06,32.06,0,0,0-2.88-1.95,9,9,0,0,0-2.08,1.82q-2.84-.53-3-.53a12.65,12.65,0,0,0-1.68.13l-.22-.18q-.71.09-3.85.09l-1.64.18-2,.18-2.08.35-1.86,0a27.9,27.9,0,0,1-3.5.93,11.21,11.21,0,0,1-.44,2.08A4.64,4.64,0,0,1,663,276q1.42,1,1.51,1.37a20.1,20.1,0,0,0,.84,3.81l.8.44-.22,1.64,1.37.35a4.76,4.76,0,0,0,1.15,2.44,4.35,4.35,0,0,0,2.21.8q.22,1.37.71,1.64a3.47,3.47,0,0,0,1.59.35l.75,1.15a4.84,4.84,0,0,1,.84-.09,16.91,16.91,0,0,1,2.66,1.11,2.53,2.53,0,0,0,1.15.27,9.55,9.55,0,0,0,2.26-.53l2.83-.31,2.17-.62a9.59,9.59,0,0,0,2.08-.27,23.52,23.52,0,0,0,2.75-1.55,10,10,0,0,0,2.26-1.64,15.1,15.1,0,0,0,1.51-2.13,1.38,1.38,0,0,1,1.24-.53,2.27,2.27,0,0,1,1.15.58,8.7,8.7,0,0,1-.58,2.08q-1.86,3.15-2.35,4.16a2.42,2.42,0,0,0-1-.27,4.65,4.65,0,0,0-1.46.88,4.06,4.06,0,0,1-2,.62,32.37,32.37,0,0,1-3.81.88,18.91,18.91,0,0,0-2.3.31l-1.42.44-2.61-.4-1.55.27-.75,0a14.16,14.16,0,0,1-1.64.13q-.58,0-3.23-.31l-.84-.09-.93-.58q-3.32-1-3.68-1.2A18.44,18.44,0,0,1,665,290q-.09-.09-1.55-1-1.24-.75-1.33-1.15l-.8-1.42a10.92,10.92,0,0,0-1.51-1.68,2.36,2.36,0,0,0,.44-1.06,26.51,26.51,0,0,0-1.15-2.48,12.38,12.38,0,0,1-.31-3.76,13.61,13.61,0,0,1,.62-3.19,8.85,8.85,0,0,1,.75-2l1.51-1.77,1-2.08q1.51-1.42,3.46-3.19l3.23-2,3.28-2.26,1.2-.22,3.37-1.06,2.17-.18a22.51,22.51,0,0,1,2.88-1A3.32,3.32,0,0,1,685.56,260.9Zm-5.14,6.64.75.93,1.2-.22a11.86,11.86,0,0,0,2.39-.62l2.52.22s.1-.15.22-.44a2.83,2.83,0,0,0,0-.44,1.61,1.61,0,0,0-.53-1c-.06-.06-.21-.24-.44-.53q-1.06-1.42-1.33-1.33l-1.46-.71a3.36,3.36,0,0,1-.84-1,37,37,0,0,0-4.38-.18l-.89,0-1.51.88a19.43,19.43,0,0,1-2.44.62q-1.86.66-3.28,1.28-.31.22-1.73,1.51l-1,.8v.27l.09.09,3.23,1.29,1,1,1.73-2.08a.77.77,0,0,1,.49-.18q.13,0,2.17.58h.09a15.22,15.22,0,0,0,2.53-.44A7.93,7.93,0,0,1,680.42,267.54Z" transform="translate(-36.87 -121.39)"/><path d="M704.92,262.4q.35-1.73,1.2-1.73h0l2.17.13h.09l2.83-.4v-1.06q0-4.16-.18-6.82a5.86,5.86,0,0,0-.53-2.08l-.44-.93a1.65,1.65,0,0,1-.18-.75q0-.67,1.06-1.59a8.35,8.35,0,0,1,4.16-2q.58-1.2,1.24-1.2a.55.55,0,0,1,.44.22,2.43,2.43,0,0,1,.62,1.73s-.13,2.36-.4,7q-.53,1.82-.67,2.13a2.74,2.74,0,0,1-1,1.28,5.71,5.71,0,0,0,.27,1.73h1l-.27,2.26a32.21,32.21,0,0,1,4.61,1.06,13,13,0,0,0,1.51,0,10.75,10.75,0,0,0,2.61-.53l2.92-.27a13.64,13.64,0,0,1,2.66-.89,9.43,9.43,0,0,1,1.42.13,8.07,8.07,0,0,1-.27,1.77q-.18.66-2.79,2.26a3.43,3.43,0,0,0-.89.66,6.71,6.71,0,0,1-.71.8,2,2,0,0,1-1.06.18,2,2,0,0,1-1-.18l-1.82-1-1.11-.27-1.33-1-2.26,1.73-1.95-.27a2.29,2.29,0,0,0-.89.44,22.43,22.43,0,0,1,.35,3.59q0,.71,0,2.08-1.64.27-1.64,1.33a3.38,3.38,0,0,0,.18,1,10.18,10.18,0,0,1,1.64.27l-.09,5.54a4.5,4.5,0,0,0-1.11-.18q-.8,0-.8.66a2.87,2.87,0,0,0,.4,1.29,2.07,2.07,0,0,1,1.06-.4q.66,0,.66.84l-.13,1.77v.09q.09,1.82.13,2.61a4.64,4.64,0,0,0,.53,1.68l.53.93a1.24,1.24,0,0,1,.09.53,7.51,7.51,0,0,1-.09,1,6,6,0,0,0,3.06.8,6.29,6.29,0,0,0,2.83-.71,13.05,13.05,0,0,0,1.24-.71l2.44-2.21a6.92,6.92,0,0,1,2.21-1.51,2.52,2.52,0,0,1,1.11.4c-.09.56-.15.95-.18,1.15a7.78,7.78,0,0,1-.62,2.68,8.32,8.32,0,0,1-2.7,1.13,43.14,43.14,0,0,1-5.49,2.17l-1.51.49a8.12,8.12,0,0,1-1.73.84q-.4,0-.89-.8l-.8-.22-.49,1.11a7.74,7.74,0,0,1-1.06.09,4.43,4.43,0,0,1-2.75-1.51,7.31,7.31,0,0,1-1.15-1.46,10,10,0,0,1-.35-1.15,10.57,10.57,0,0,1-.49-1.68c0-.27,0-.69.09-1.28s.09-1.46.09-3a3.15,3.15,0,0,1,.8-2.21,6.83,6.83,0,0,1-.27-2q-.22-2-.27-7.75Q712,271.66,712,271a4.86,4.86,0,0,0-.09-.84l-1.28-.31-.09-.4v0a6.51,6.51,0,0,1,.13-.93,20.33,20.33,0,0,0,.27-4,13.93,13.93,0,0,0-2.66-.4q-.27,0-2.3.27l-.93.09q-1.24.4-1.33.4-.62,0-.62-.58Q703.06,263.42,704.92,262.4Z" transform="translate(-36.87 -121.39)"/><path d="M746.38,278a3.65,3.65,0,0,1,1-1.15,13.38,13.38,0,0,1,2.66-.71,19.4,19.4,0,0,1,2.26-1q.4-.09,2.66-.31l1.42-.49.84-.09.8-.09h1.73l3.5-.44a5.11,5.11,0,0,0,1.95-.4,1.94,1.94,0,0,0,.8-1.68,8.71,8.71,0,0,0-.35-1.42l2.3-2.88s-.92-.33-2.75-.89a5.44,5.44,0,0,0-1.33-.09,26.48,26.48,0,0,0-2.26-2.7,27,27,0,0,0-3.37-.62h-1.42a6.34,6.34,0,0,0-1.28-.27,8.38,8.38,0,0,0-1,.09l-.84-1.06a3.51,3.51,0,0,0-1.51,1,3.54,3.54,0,0,1-1.37.84,16.36,16.36,0,0,0-3.81,2.17l-.62.4a3.85,3.85,0,0,1-.75.93,2.41,2.41,0,0,1-1.24.31,8.46,8.46,0,0,1-1.64-.49,8.08,8.08,0,0,1-1.86-.58,4.86,4.86,0,0,1-1-1.11q.75-.58,1.06-.84a3,3,0,0,1,1-.71l2.08-.49,1.33-.71,2.83-.89,1.77-.75h1.82l2-.58.84,0,1.55-.27,2.75,0a12.76,12.76,0,0,1,2.39.62l1.06.13,2.44.44a3,3,0,0,1,1.59,1q-.75.67-.75,1.11c0,.41.18.62.53.62a2.44,2.44,0,0,0,1-.35,13,13,0,0,1,1.24-.4,2.2,2.2,0,0,1,.62,1.51l1.11.8a4.83,4.83,0,0,1,.09.62l-.13,1.73a6,6,0,0,0,1,2.44h.18q.13,1,.35,2.13.13,2.57.18,3.41-1,.62-1,1.2t1.2,1.2c0,.38,0,.71,0,1a12.68,12.68,0,0,1-.18,1.55q0,.49,0,1a17.1,17.1,0,0,0,.49,3.63,2.3,2.3,0,0,0-.8,1.6,3.31,3.31,0,0,0,.75,1.73,8.58,8.58,0,0,1,.31.84c.09.21.25.61.49,1.2a4.31,4.31,0,0,0-.71,1.11,5.12,5.12,0,0,1-1.37.71l-1.68.75-1.06.31a14.15,14.15,0,0,1-1.82.58,1.53,1.53,0,0,1-1-.49l.67-3a24.9,24.9,0,0,0-3.72,1.37l-1.29.27-1.2.27-1.64-.18-1.64.84-.89.09-3.59.75-1.86-.13a7.06,7.06,0,0,1-1.86.49,26.77,26.77,0,0,1-3.46-.58l-1.86-.18-1.37-.58a9.12,9.12,0,0,1-2.3-1.15,3.32,3.32,0,0,1-1.06-1.68l-1-.35a9.84,9.84,0,0,1-.4-1.59l-.44-1.91v0a2.33,2.33,0,0,1,.58-1.28,15,15,0,0,0,1.24-2.26q2.17-2.13,2.88-2.75a14,14,0,0,1,2.79-1.37,4.77,4.77,0,0,1,1.55-.8A4.86,4.86,0,0,1,746.38,278Zm-2.75,9.39q-.35.58-.66,1.2a2.15,2.15,0,0,0-.44,1.06l.44.84,1.24-1.06a6.58,6.58,0,0,0,2.08,1.15l1.77.49a3.57,3.57,0,0,1,.75.93l1.37.18a4.68,4.68,0,0,0,.58,0,2,2,0,0,0,1.2-.62A2,2,0,0,0,753,292a5.88,5.88,0,0,0,1-.58l1.24.27,2.39-.84,1.15-.53,1,.18,1.68-.71,1.95-.75a13.16,13.16,0,0,1,.93-1.33,3.61,3.61,0,0,1,1.55-.71l.27-1.42a1.85,1.85,0,0,0,1-1.24,2.88,2.88,0,0,1-.89-.93q0-.75,0-1.11v-.71q0-1.2-.09-2a3,3,0,0,1,0-.49,5.21,5.21,0,0,1,.35-1.55,2.23,2.23,0,0,1-1-.53l-1.91,0-1.73-.09-1.33,0h-.84a5.75,5.75,0,0,1-1.33-.71l-1,.31a9.44,9.44,0,0,0-2.61.27,2.4,2.4,0,0,1-.89.22,10.31,10.31,0,0,1-1-.27h-.09a5.22,5.22,0,0,0-1.42.8,21.26,21.26,0,0,1-2.3.89,16,16,0,0,0-4.08,2.35q-.13.13-1,1.33a2.92,2.92,0,0,1-1.55.75,1.1,1.1,0,0,0-.18.49c0,.09.12.27.35.53l.31,2.39A3.46,3.46,0,0,0,743.63,287.34Z" transform="translate(-36.87 -121.39)"/><path d="M294.81,312.9q.36,0,.94-.62h.64l.47,0,1.16,0a5.87,5.87,0,0,1,1.05.41l.11,0a1.78,1.78,0,0,0,.43-.19h.24l4-.13a.89.89,0,0,1,.51.21,2.07,2.07,0,0,0,.58.26l.36-.36a17.88,17.88,0,0,1,2.42.17l.06-.06q.36.49.69.49t.58-.51q.6,0,1.05,0l3,.39.94,0a8.09,8.09,0,0,0,1.24.21q.09.43.26.47a3.13,3.13,0,0,0,.86.13q.24-.47.49-.47l.43.13.73,0a1.74,1.74,0,0,1,.73.32,2.57,2.57,0,0,0,.88.43l.45-.13,2,.84a10.34,10.34,0,0,1,2.16.58,1.3,1.3,0,0,0,.32.21l.43.06q.49.36.73.51l.9.71,1,.6a8.11,8.11,0,0,0,1.31.86,3,3,0,0,0-.13.66q0,.56.36.56a1.75,1.75,0,0,0,.66-.15,13.61,13.61,0,0,0,1.14,1.18q.49.49.45.62l.15.64.54,1.48,0,1,.36,1.33.06,1.63.15.69-.11,1.63a11,11,0,0,1-.19,1.91,13.77,13.77,0,0,1-.49,1.54h-.39a.63.63,0,0,0,0,.15,2.9,2.9,0,0,0,.24.47.57.57,0,0,1,0,.17,1.93,1.93,0,0,1-.15.69q-.17.43-.19.51-.32,1-.62,1t-.54-.66l-.47.77.15.26-.11.43.39.56a10.38,10.38,0,0,0-.92,1.69l-.54.69-.09.26-1,1-.15.39-.62.73c-.23.27-.38.41-.45.41s-.17-.06-.3-.19h-.32l-.28-.36a1.21,1.21,0,0,0-.39.66,1.06,1.06,0,0,0,.3.56,8.87,8.87,0,0,1-1.31,1,3.09,3.09,0,0,0-.71.62,5.12,5.12,0,0,0-1.37-.36l-.09.26a2.58,2.58,0,0,1,.36.64,11.57,11.57,0,0,1-1.46,1.14l-1.46.75a4.27,4.27,0,0,0-.71.6,1.54,1.54,0,0,0-.9-.47,1.62,1.62,0,0,1-.39.88,12.34,12.34,0,0,1-1.33.39.79.79,0,0,0-.32.17,8.39,8.39,0,0,1-.84.66h-.47a2.32,2.32,0,0,0-.6.39,5.3,5.3,0,0,1-.94.36l-.39.17a8,8,0,0,1-1.8.69,6.6,6.6,0,0,0-1.41.3l-2.06.71-1.41.13-.54.17-.36,0-.79.11h-.47l-.9.21-1.22,0-1.69.13-.39,0q-.56,0-.86-.06l-3.26.13-.19.06-.13,0q-.56,0-.56-.54a.28.28,0,0,1,.14-.26,9.91,9.91,0,0,1,1-.41,5.78,5.78,0,0,0,1.24-.58,2.2,2.2,0,0,1,.43-1q-.06-.69-.06-1l.28-1.63v0a2.32,2.32,0,0,0-.06-.51l-.09-.3s.1-.49.3-1.35a1.69,1.69,0,0,0,0-.36,2.48,2.48,0,0,0-.26-.79l1.76-.49-1.69-2.72,0-.09q.81-.17.81-.56a1.34,1.34,0,0,0-.3-.67.9.9,0,0,1-.36.09q-.32,0-.32-.71l0-.54v-2.89a2.68,2.68,0,0,0,0-.51c0-.14,0-.23,0-.26a1.92,1.92,0,0,1,.36-.92l-.36-.26v-.62l.34-.34a1.32,1.32,0,0,1-.41-1v-.56a17.24,17.24,0,0,0-.06-1.8c0-.2,0-.37,0-.49a1.18,1.18,0,0,1,.13-.47,2.82,2.82,0,0,0,.45,0c.19,0,.28-.08.28-.24s-.09-.15-.26-.32a2,2,0,0,0-.39-.43q-.54,0-.58-.49l.15-1.18-.17-4.24.15-.15h.17a3.62,3.62,0,0,0,.24-.92q0-.3-.62-.6a16.44,16.44,0,0,0-.41-1.93l0-.77a4.06,4.06,0,0,1-.17-1.16q0-.58-.24-2.06a5.06,5.06,0,0,1-.6,0l-.13,0a2,2,0,0,0-.47.13,2.4,2.4,0,0,1-.88.11,1.17,1.17,0,0,1-.13-.47.81.81,0,0,1,.58-.73A1.17,1.17,0,0,0,294.81,312.9Zm4.56,4.82h.51a5.85,5.85,0,0,1,.28,1.39l.11.47,0,1.37.06.79a4.79,4.79,0,0,0-.32.79,5.06,5.06,0,0,0,.17.69l-.09,1.57,0,.45,0,.71a6.54,6.54,0,0,1,.15.81.88.88,0,0,1-.11.39l-.56-.17a1,1,0,0,0-.13.41.43.43,0,0,0,.32.47l.24,0a2.7,2.7,0,0,1,.51.13,6.64,6.64,0,0,1-.69.62q-1,.77-1,1.24s.58,1,1.74,2.72a9.44,9.44,0,0,0-.21,1.65l-.51.24.11.21.54.19,0,.21v3.07a18.8,18.8,0,0,0,.11,3,1.81,1.81,0,0,1,0,.24s0,.26-.11.71a3.64,3.64,0,0,0,0,.36,14,14,0,0,0,.24,1.76,1.64,1.64,0,0,1,0,.26.93.93,0,0,1-.15.45l-.88-.28a1.09,1.09,0,0,0-.24.56q0,.71.79.71h.24a5.3,5.3,0,0,0,.13.94,7.67,7.67,0,0,1,.09,1.42q0,.32.17,1.59a2.37,2.37,0,0,0-.88,1l-.62.26v.13l.06.09a1.16,1.16,0,0,1,.26-.09l1.16,0a7.22,7.22,0,0,1,.81,0,2.27,2.27,0,0,1,.41.21l.3-.43.41,0,2.14-.06a2,2,0,0,1,.36.15,1.25,1.25,0,0,1,.41-.54,2.42,2.42,0,0,1,.9-.13h.21a5.32,5.32,0,0,0,1.52-.13l.58-.26.86-.26a23.72,23.72,0,0,0,2.31-1l.69-.19,1.29-.54.49,0,1.14-.62a2.59,2.59,0,0,0,.84-.26,1.58,1.58,0,0,0,0-.26l.58-.26a11.15,11.15,0,0,0,1.93-1.09c.44-.21.74-.37.9-.47s.81-.66,2.12-1.76l1.2-.94.62-.92,1.05-1a2.14,2.14,0,0,0,.39-.58,15.38,15.38,0,0,1,1.41-1.84,5.41,5.41,0,0,0,.21-.54q.09-.19.45-.9a2.81,2.81,0,0,0,.28-1.18,4.92,4.92,0,0,1,.47-1.39,3,3,0,0,0,.36-1.24l0-1,.19-1.16a6.77,6.77,0,0,1,.15-1q.79-.17.79-1.18,0-.6-.79-1a11.67,11.67,0,0,0-.26-1.52l0-.62a5.39,5.39,0,0,1-.26-.9,3.75,3.75,0,0,1,.09-.71,4.57,4.57,0,0,1-.84-1.07q-.62-1.09-.66-1.2a4,4,0,0,1-.09-.6l-.24-.24a2,2,0,0,1-.49,0,2,2,0,0,1-.77-.49,1.71,1.71,0,0,0,.13-.58.78.78,0,0,0-.19-.41,4.47,4.47,0,0,0-.58,0l-.58.09h0a7,7,0,0,1-1.31-1l-1-.58-.64-.51-.66-.32-1.52-.79-.64-.19-.56-.19-1.09-.15-.81-.24-1.74-.28-1.31-.28a16.65,16.65,0,0,1-1.82-.36l-.43-.36a.61.61,0,0,0-.32-.19,1.19,1.19,0,0,0-.51.17.88.88,0,0,1-.41.13l-.73-.11-.88,0-2.27-.15-1.84.06h-1.35a1.21,1.21,0,0,1-.51-.11,4.52,4.52,0,0,0-.64-.24l-.34.13a2.52,2.52,0,0,1-.54.11,1.32,1.32,0,0,0-.19.45l.06.77-.17.62a6.18,6.18,0,0,1-.24,1.2l-.39-.13a1.1,1.1,0,0,0-.19.51.29.29,0,0,0,.09.21Z" transform="translate(-36.87 -121.39)"/><path d="M350.23,330.58l.69-.43a4.51,4.51,0,0,0,.45.49,2.51,2.51,0,0,0,.45.21,18.9,18.9,0,0,1,1.84,1.8,3.35,3.35,0,0,1,.71,1q.17.41.36,1c.09.2.19.46.3.77l-.15.15a4,4,0,0,1-.64-.19l-.81.3-.73-.13-.64.17a15.3,15.3,0,0,0-1.39-.94,4.36,4.36,0,0,0-1,.88q-1.37-.26-1.46-.26a6.12,6.12,0,0,0-.81.06l-.11-.09q-.34,0-1.86,0l-.79.09-1,.09-1,.17-.9,0a13.38,13.38,0,0,1-1.69.45,5.45,5.45,0,0,1-.21,1,2.24,2.24,0,0,1-.51.71q.69.47.73.67a9.7,9.7,0,0,0,.41,1.84l.39.21-.11.79.66.17a2.31,2.31,0,0,0,.56,1.18,2.1,2.1,0,0,0,1.07.39q.11.67.34.79a1.67,1.67,0,0,0,.77.17l.36.56a2.25,2.25,0,0,1,.41,0,8.2,8.2,0,0,1,1.29.54,1.23,1.23,0,0,0,.56.13,4.65,4.65,0,0,0,1.09-.26l1.37-.15,1-.3a4.6,4.6,0,0,0,1-.13,11.17,11.17,0,0,0,1.33-.75,4.84,4.84,0,0,0,1.09-.79,7.29,7.29,0,0,0,.73-1,.67.67,0,0,1,.6-.26,1.09,1.09,0,0,1,.56.28,4.23,4.23,0,0,1-.28,1q-.9,1.52-1.14,2a1.17,1.17,0,0,0-.47-.13,2.26,2.26,0,0,0-.71.43,2,2,0,0,1-1,.3,15.76,15.76,0,0,1-1.84.43,9.07,9.07,0,0,0-1.11.15l-.69.21-1.26-.19-.75.13-.36,0a7,7,0,0,1-.79.06q-.28,0-1.56-.15l-.41,0-.45-.28q-1.61-.49-1.78-.58a8.84,8.84,0,0,1-.73-.64s-.28-.19-.75-.47-.61-.43-.64-.56l-.39-.69a5.28,5.28,0,0,0-.73-.81,1.14,1.14,0,0,0,.21-.51,13,13,0,0,0-.56-1.2,6,6,0,0,1-.15-1.82,6.6,6.6,0,0,1,.3-1.54,4.25,4.25,0,0,1,.36-1l.73-.86.47-1,1.67-1.54,1.56-1,1.59-1.09.58-.11,1.63-.51,1-.09a10.88,10.88,0,0,1,1.39-.47A1.61,1.61,0,0,1,350.23,330.58Zm-2.49,3.21.36.45.58-.11a5.74,5.74,0,0,0,1.16-.3l1.22.11s.05-.07.11-.21a1.37,1.37,0,0,0,0-.21.78.78,0,0,0-.26-.47l-.21-.26q-.51-.69-.64-.64l-.71-.34a1.61,1.61,0,0,1-.41-.49,18,18,0,0,0-2.12-.08l-.43,0-.73.43a9.68,9.68,0,0,1-1.18.3q-.9.32-1.59.62c-.1.07-.38.31-.84.73l-.49.39v.13l0,0,1.56.62.47.47.84-1a.37.37,0,0,1,.24-.09s.39.09,1.05.28h0a7.34,7.34,0,0,0,1.22-.21A3.89,3.89,0,0,1,347.75,333.79Z" transform="translate(-36.87 -121.39)"/><path d="M359.6,331.31q.17-.83.58-.83h0l1,.06h0l1.37-.19v-.51q0-2-.09-3.3a2.84,2.84,0,0,0-.26-1l-.21-.45a.81.81,0,0,1-.09-.36q0-.32.51-.77a4,4,0,0,1,2-1q.28-.58.6-.58a.26.26,0,0,1,.21.11,1.18,1.18,0,0,1,.3.84s-.06,1.14-.19,3.39q-.26.88-.32,1a1.33,1.33,0,0,1-.49.62,2.75,2.75,0,0,0,.13.84h.49l-.13,1.09a15.43,15.43,0,0,1,2.23.51,6.54,6.54,0,0,0,.73,0,5.19,5.19,0,0,0,1.26-.26l1.41-.13a6.53,6.53,0,0,1,1.29-.43,4.63,4.63,0,0,1,.69.06,3.9,3.9,0,0,1-.13.86q-.09.32-1.35,1.09a1.66,1.66,0,0,0-.43.32,3.3,3.3,0,0,1-.34.39,1,1,0,0,1-.51.09,1,1,0,0,1-.47-.09l-.88-.47-.54-.13-.64-.47-1.09.84-.94-.13a1.1,1.1,0,0,0-.43.21,10.87,10.87,0,0,1,.17,1.74q0,.34,0,1-.79.13-.79.64a1.64,1.64,0,0,0,.09.47,4.88,4.88,0,0,1,.79.13l0,2.68a2.18,2.18,0,0,0-.54-.09q-.39,0-.39.32a1.38,1.38,0,0,0,.19.62,1,1,0,0,1,.51-.19q.32,0,.32.41l-.06.86v0q0,.88.06,1.26a2.24,2.24,0,0,0,.26.81l.26.45a.6.6,0,0,1,0,.26,3.67,3.67,0,0,1,0,.49,2.89,2.89,0,0,0,1.48.39,3,3,0,0,0,1.37-.34,6.35,6.35,0,0,0,.6-.34l1.18-1.07a3.37,3.37,0,0,1,1.07-.73,1.22,1.22,0,0,1,.54.19q-.06.41-.09.56a3.75,3.75,0,0,1-.3,1.3,4,4,0,0,1-1.31.55,20.86,20.86,0,0,1-2.66,1l-.73.24a4,4,0,0,1-.84.41q-.19,0-.43-.39l-.39-.11-.24.54a3.63,3.63,0,0,1-.51,0,2.15,2.15,0,0,1-1.33-.73,3.54,3.54,0,0,1-.56-.71,4.78,4.78,0,0,1-.17-.56,5.15,5.15,0,0,1-.24-.81q0-.19,0-.62t0-1.44a1.52,1.52,0,0,1,.39-1.07,3.31,3.31,0,0,1-.13-1q-.11-1-.13-3.75.51-.32.51-.62a2.35,2.35,0,0,0,0-.41l-.62-.15,0-.19v0a3.17,3.17,0,0,1,.06-.45,9.81,9.81,0,0,0,.13-1.93,6.75,6.75,0,0,0-1.29-.19l-1.11.13-.45,0-.64.19c-.2,0-.3-.09-.3-.28S359,331.64,359.6,331.31Z" transform="translate(-36.87 -121.39)"/><path d="M385.4,330.67l.88-.56q0-.36.09-.94l0-2.14a3.12,3.12,0,0,1,.43-1.39,1.8,1.8,0,0,1-.56-.54s-.05-.78-.06-2.21l0-1.54,0-1a1.69,1.69,0,0,1,.32-.9,4.41,4.41,0,0,0,.58-1.07,2.49,2.49,0,0,0,0-.3l-.32-.15a6.26,6.26,0,0,1,1.41-3.09,5.25,5.25,0,0,1,.94-1.11l1.37-1.14q.36-.26,2-1.14l.45-.32.64-.08,1.18-.28a6,6,0,0,1,.69.19.88.88,0,0,0,.28,0,1.62,1.62,0,0,0,.34,0l.51-.06a1.91,1.91,0,0,1,1.46.69h.54a.77.77,0,0,1-.15.49s-.17.21-.47.56a3.83,3.83,0,0,1-.43.56,4.75,4.75,0,0,1-1.16.58l-1.44-.81a2.9,2.9,0,0,0-1.46-.47,5,5,0,0,0-1.93.66,1.93,1.93,0,0,0-.79.71,11.81,11.81,0,0,0-1.16,2.7l-.24.47-.3,1.18a2.82,2.82,0,0,0-.39.81q0,.24.43.36a2.46,2.46,0,0,0-.15.86q0,.19,0,1l0,1.59a5.15,5.15,0,0,1-.41,1,1.15,1.15,0,0,0,0,.41,2.39,2.39,0,0,0,.36,1,20.51,20.51,0,0,1,.11,3.19q0,.36-.64,1v.17a1.1,1.1,0,0,0,.49.28q.39.13.47,1.16a2.68,2.68,0,0,0,.77.62l.94.26,1.24.34,1.5-.58,1.59-.34a4,4,0,0,1,1.14-.62,7.77,7.77,0,0,1,.81-.11,1.48,1.48,0,0,1,.45.84q-1.22.73-1.5.93a3.68,3.68,0,0,0-.64.65.37.37,0,0,1-.28.15,2.51,2.51,0,0,1-.73-.17,2.55,2.55,0,0,0-.81-.13,8.17,8.17,0,0,0-1.18.15,4.72,4.72,0,0,1-.71.06,6.35,6.35,0,0,1-1.24-.15,8.64,8.64,0,0,0-1-.19.66.66,0,0,0-.45.25.51.51,0,0,0-.19.44l.19.94.13,2.1a.69.69,0,0,1-.11.3q-.45.15-.45.47a1,1,0,0,0,.47.75q0,.58.06.75a21.37,21.37,0,0,0,.32,2.79l-.21.21-.36-.09-.36.34a4.86,4.86,0,0,0,.36.45q.39.45.36.6v0l-.06.69v.06a8,8,0,0,0,.15,1l-.32.17v.49a15.22,15.22,0,0,0-1.63.71,3,3,0,0,1-.84.19v-.13a.6.6,0,0,1-.88,0,3.92,3.92,0,0,0,.17-.79l.09-.49.11-.62a5.35,5.35,0,0,0,.32-1.39q0-.21,0-1.22a.92.92,0,0,0,.47-.69,4.2,4.2,0,0,0-.17-1,5.64,5.64,0,0,1-.21-1.14l0-.69v-3.69q0-.73.21-.79a3.45,3.45,0,0,0,.79-.34V333l-.19-.19a1.36,1.36,0,0,1-.39.06c-.16,0-.26,0-.3-.09l-.73-1-1-.17-.51-.13q-.54,0-1.63,1.18a.51.51,0,0,1-.11-.3,5.44,5.44,0,0,1,.77-1.22q.49-.64.94-.64A8.83,8.83,0,0,1,385.4,330.67Z" transform="translate(-36.87 -121.39)"/><path d="M399.78,340.44a8.8,8.8,0,0,1,.17-2.06q.17-.56.6-1.69.88-1.63,1-1.84a4.53,4.53,0,0,1,1-.75s.12-.23.32-.64a1.05,1.05,0,0,1,.32-.41,13.17,13.17,0,0,1,1.65-.88,3.81,3.81,0,0,0,1-.81q.09-.08,2.57-1a11,11,0,0,1,3.75-.49,6.39,6.39,0,0,1,1.29.17l.09.45a2.2,2.2,0,0,1,.51.3.91.91,0,0,0,.51-.56,5.82,5.82,0,0,1,2.06.86,4.54,4.54,0,0,1,.75.51l.43.75a1.64,1.64,0,0,0,1.46.69,7.73,7.73,0,0,1,.65,1.26,8,8,0,0,1,.27,1.37q.13,1,.19,1.54h-.34v.26l-.43.49a1.2,1.2,0,0,0,.6.69q-.06.94-.13,1.29a7.86,7.86,0,0,1-.32.75,21.91,21.91,0,0,1-1.11,2.38,5,5,0,0,1-2.08,1.67l-1.16.58-1.09.51a7.23,7.23,0,0,1-1,.5q-.15,0-2.08.14l-1.5.32h-1.52l-.69.09q-1.89-.32-2.36-.34a1.66,1.66,0,0,0-.45-.41l-.84-.15a6.62,6.62,0,0,1-1.69-.92l-.77-.43c-.09-.26-.14-.44-.17-.54a.92.92,0,0,0-.17-.32l-.45-.3s-.06-.06-.15-.19a2.8,2.8,0,0,1-.47-1.5.88.88,0,0,1,.45-.69,1.38,1.38,0,0,0-.66-.56Zm2.36-.43v.21l.19.19a.76.76,0,0,1,.43-.21q.17.73.3,1.11.11.24,1.11,1.86a.31.31,0,0,1,0,.13,1.65,1.65,0,0,1-.21.62q.08.3.58.32a.59.59,0,0,1,.36-.21,15.75,15.75,0,0,1,1.89.9,3.45,3.45,0,0,0,1.52.36h1.26l.64.15a2.84,2.84,0,0,0,.71.11,4.81,4.81,0,0,0,1.11-.15q.41-.11,1.18-.26a10.68,10.68,0,0,0,1.46-.92,3.88,3.88,0,0,0,.94-.39q.15-.17.81-1.26l.54-1.07a6.47,6.47,0,0,0,.62-.64.83.83,0,0,0,.09-.41,1.44,1.44,0,0,1-.32-.69v0l.09-.43a5.81,5.81,0,0,1,.26-1.61,10.91,10.91,0,0,1-.41-1.29l-.34-1.11a6.82,6.82,0,0,1-.06-.88l-.08-.09h-.51a9.52,9.52,0,0,0-1-1.35l-.48-.59a2,2,0,0,0-.42-.2l-1.07-.43q-.21-.75-.69-.75a2.79,2.79,0,0,0-.66.21,6.63,6.63,0,0,0-.75-.17q-1.11,0-1.46,0a2.8,2.8,0,0,0-1.11.49l-.45-.32a1.87,1.87,0,0,1-.49.51l-.92.47-.15.17-2.57,2.16-.19.15a2.28,2.28,0,0,1-.13.75l-.43.75a3.53,3.53,0,0,1-.54,1,2.48,2.48,0,0,1,0,.3q0,.49-.75.79a2.76,2.76,0,0,0,.17.49q.58.41.58.54T402.14,340Zm1.29-15.37a.78.78,0,0,1,.32-.51,8.82,8.82,0,0,0,1-.77q.69-.86.88-.86a3.23,3.23,0,0,1,.77.43,2.09,2.09,0,0,0,.62.32,3.08,3.08,0,0,1,1.09.67,2,2,0,0,1,.3.71,7.61,7.61,0,0,0-.43.77,2.82,2.82,0,0,1-.79.75,2.43,2.43,0,0,0-.51.62,2.71,2.71,0,0,1-.56-.21l-.69-.66a5.6,5.6,0,0,1-1.14-1.07,2.47,2.47,0,0,0-.41-.06A.78.78,0,0,1,403.43,324.64Zm9.28-.28a12.13,12.13,0,0,1,1.44-1.2,3.55,3.55,0,0,1,.86-.64,17.26,17.26,0,0,0,1.67,1,2.09,2.09,0,0,1,.73.69.52.52,0,0,1,.09.21,1.62,1.62,0,0,1-.28.63,2.58,2.58,0,0,1-.51.65,8.84,8.84,0,0,1-1.26.94,10,10,0,0,0-1-1,2.54,2.54,0,0,1-.56-.51,2.15,2.15,0,0,0-.47-.51A7.6,7.6,0,0,0,412.71,324.37Z" transform="translate(-36.87 -121.39)"/><path d="M425.23,331.78a2.09,2.09,0,0,1,.41-.71,4.26,4.26,0,0,1,1.11-.66,4.86,4.86,0,0,1,1.05-.58.66.66,0,0,1,.58.28l.09.37.17.66a1.49,1.49,0,0,0-.06.36.72.72,0,0,0,.24.45,6.31,6.31,0,0,0,1.16-.54l.9-.3.9-.6.58-.24a3.59,3.59,0,0,1,.51-.24l.47.08h.06a14.75,14.75,0,0,0,1.46-.45,3,3,0,0,1,.64,0,.92.92,0,0,1,.51.11l.45.43.3.06a5.11,5.11,0,0,0,.62-.3l.11,0a1,1,0,0,1,.64.32,1.72,1.72,0,0,1,.49.92,11.52,11.52,0,0,1-1.29,1q-.47.6-.69.6t-.9-.69a6,6,0,0,1-.64,0,2.92,2.92,0,0,1-.92-.26,4.51,4.51,0,0,0-1-.26.82.82,0,0,1-.71.47,5.16,5.16,0,0,0-.75.08l-.86.26a.94.94,0,0,1-.34-.15q-.43.39-1.5,1.16a2,2,0,0,0-.66,1.74v.75c0,.26,0,.47,0,.64s-.17.39-.49.71a1.08,1.08,0,0,1,.36.66,1.92,1.92,0,0,1,0,.36l.32.09.06.64.11,3.84-.09.24-.56.3a3.63,3.63,0,0,0-1.2.32,4.32,4.32,0,0,0,1.35.28l.36-.09a4.15,4.15,0,0,1,.21,1,.85.85,0,0,1-.49.77,4.09,4.09,0,0,1-1.09.21,5.13,5.13,0,0,0-.92.54.53.53,0,0,1-.3.09c-.34,0-.51-.15-.51-.45a10.29,10.29,0,0,1,.32-1.22.81.81,0,0,0,0-.26s0-.35-.11-1a2.08,2.08,0,0,1,.09-.36l.51-.15a3.28,3.28,0,0,0,0-.34,1.12,1.12,0,0,0-.32-.66v-.54a9.42,9.42,0,0,0-.13-1q.06-.71.06-1.2.79-.28.79-.69a1.27,1.27,0,0,0-.06-.34,1.83,1.83,0,0,1-.43.06.63.63,0,0,1-.36-.17V336c0-.11,0-.24,0-.39v-.34a2.31,2.31,0,0,1,.28-.92.91.91,0,0,1-.32-.41s0-.51-.09-1.39A1.91,1.91,0,0,0,425.23,331.78Z" transform="translate(-36.87 -121.39)"/><path d="M450.86,338.32l-.56.41a5.2,5.2,0,0,0-1.33-.24,13.48,13.48,0,0,0-1.39.09,1.76,1.76,0,0,0-.64-.75l-.41.54a8.86,8.86,0,0,0-1.07.24,1.93,1.93,0,0,1-.45.06l-.13,0-.81-.17s0,0-.06.06l-.41-.43a1.51,1.51,0,0,1-.58.15,2.29,2.29,0,0,1-.54-.21l-.39-.15q-1.65-.58-1.65-1.89a3.62,3.62,0,0,1,.88-2.25,9,9,0,0,1,1.2-1.14l.43-.41,1-.6a18.64,18.64,0,0,1,2.27-1.24,7.56,7.56,0,0,1,2.68-.69q.17,0,1.93.45l1.11-.19a5.24,5.24,0,0,1,1.22.15q.43.22.43.43a.61.61,0,0,1-.21.43l-1,.64a5.89,5.89,0,0,1-1.16.62,7.78,7.78,0,0,1-2-.19,3.38,3.38,0,0,0-.45-.73h-.13l-.41.43-.54,0-.36,0-.34,0-.56.13a1.14,1.14,0,0,0-.64-.13,12.47,12.47,0,0,1-1.41.86,2.54,2.54,0,0,0-.89.84,1.91,1.91,0,0,0-.37,1.05q0,.24.41.6a4.51,4.51,0,0,0,.75.34,7.29,7.29,0,0,1,.84.47,2.3,2.3,0,0,0,0,.28q0,.45.36.45c.23,0,.49-.18.77-.56a6.62,6.62,0,0,0,.84.06q.13,0,1.22-.19l.69.06,1-.13a7,7,0,0,1,1.09.3l.77-.09.77.54a5.3,5.3,0,0,1,1.69,1.09,1.71,1.71,0,0,1,.39.69l.15.71a12.69,12.69,0,0,1,.3,1.48q0,.13-.08.75-.11,1.37-.79,1.37a2.21,2.21,0,0,1-.49-.06,3.34,3.34,0,0,1-.43,1.22q-1,1.11-1.24,1.5a3.92,3.92,0,0,0-1.8.66,2.43,2.43,0,0,1-.39.28l-.54.06-1.74.47-.94-.15a11.15,11.15,0,0,0-1.29.34l-.51-.06a11.84,11.84,0,0,1-1.54-.17,3.22,3.22,0,0,1-1.18-.41l-.69-.45a8.11,8.11,0,0,1-1.56-1.12,2.27,2.27,0,0,1-.64-1.46q0-.15.47-.51l.58-.54a3.84,3.84,0,0,1,.94-.6.21.21,0,0,1,.15.06,1.41,1.41,0,0,1,.49,1l-.09.69v0a.32.32,0,0,0,.11.3,6.24,6.24,0,0,0,.77.47,3,3,0,0,1,.39.28q.54.47.56.47l.79.32.73.39h.81l.51.11a5.74,5.74,0,0,1,1.41-.26,2.1,2.1,0,0,0,.88-.17l.84-.41a4.17,4.17,0,0,0,.79-.32,5.79,5.79,0,0,0,1.07-1.42,4.92,4.92,0,0,0,.69-2.59,1,1,0,0,0-.19-.6Q451.09,338.79,450.86,338.32Z" transform="translate(-36.87 -121.39)"/><path d="M457.65,332.06a3.36,3.36,0,0,1,.35-.51,8.25,8.25,0,0,1,.8-.43,2.59,2.59,0,0,0,.67-.43l.28-.32c.51,0,.82.09.92.24s.31.71.71,1.74l0,.56.24.75a2.29,2.29,0,0,0,.15.56,1.14,1.14,0,0,0,.6.34,5,5,0,0,0,.3.9,3.75,3.75,0,0,1,.39,1.2,1.65,1.65,0,0,0,.11.56,1.36,1.36,0,0,1,.41.36l.28.73.3.43a6.72,6.72,0,0,0,.71,1.26l-.21.71a3.43,3.43,0,0,1,.66.45,4.14,4.14,0,0,1,.32.49l.51.79a2.63,2.63,0,0,0,.3.62.42.42,0,0,0,.28.11q.32,0,.51-.58a10.84,10.84,0,0,1,.94-1.74l.19-.47.34-.62q.39-1,.6-1.52a1,1,0,0,0,.73-.39,4.91,4.91,0,0,1-.17-.88,7.93,7.93,0,0,1,.88-2,1,1,0,0,0,.09-.47,4.17,4.17,0,0,0-.11-.75,5.49,5.49,0,0,0,.64-1.12c.06-.17.14-.54.26-1.09q.08-.41.9-.86a7.54,7.54,0,0,1,1.44-.26l.15.15q-.19.41-.6,1.54a5.86,5.86,0,0,0-.64,1.37,4.6,4.6,0,0,1-.54,1.16,3.36,3.36,0,0,0-.28.51l-1,2.72a2.77,2.77,0,0,1-.41.77l-.32.45-.17.58-.24.43-1.39,2.55L468,344a1.59,1.59,0,0,1-.56.39l.28.75q-.47.28-.62.34a6.21,6.21,0,0,0-1.24.81l-.39.3a1.7,1.7,0,0,1-.34,0,1,1,0,0,1-.3-.54q-.09-.47-.17-.77a1.69,1.69,0,0,1-.49-.47l-.21-.64-.49-.94-.58-1.22-.26-.45a4.41,4.41,0,0,1-.06-.79,1,1,0,0,0-.11-.41c-.07-.13-.28-.24-.62-.32V340a.75.75,0,0,0,.3-.47,1.07,1.07,0,0,0-.56-.86,1.26,1.26,0,0,0-.69-.13,4.51,4.51,0,0,0-.3-.9,3.17,3.17,0,0,1-.36-1,1.18,1.18,0,0,1,0-.17l.13-.62c-.26-.21-.43-.35-.51-.41a3.17,3.17,0,0,1-1-1.09A23.06,23.06,0,0,0,457.65,332.06Z" transform="translate(-36.87 -121.39)"/><path d="M481.21,337.27l-.64.36.17.73a2,2,0,0,1,0,.28,3,3,0,0,1-.11.56,9,9,0,0,0-.11,1.67,2.46,2.46,0,0,0,.28.75l-.06.71.06.84a1.84,1.84,0,0,0,.77,1.56,15.32,15.32,0,0,0,2.17.73,4.56,4.56,0,0,0,1.14.21,2.18,2.18,0,0,0,1.42-.3l.88-.84a1.69,1.69,0,0,1,.54-.3,1.08,1.08,0,0,0,.64.3l.28,0a2.35,2.35,0,0,1,.36-.6s.23-.15.6-.36q.09-.08.79-1.16a8.61,8.61,0,0,0,.67-.58,6.12,6.12,0,0,0,.34-.86,3.57,3.57,0,0,0,.21-.9v0q0-.45,0-.62v0a4.55,4.55,0,0,1,.17-.75l-.34-.19-.13-.3V335a11.68,11.68,0,0,0-.21-1.71v-.11a1.1,1.1,0,0,1,.43-.69c0-.17-.1-.27-.17-.3l-.28-.11s-.06-.23-.06-.6a1.78,1.78,0,0,1,0-.28,7.61,7.61,0,0,0,.13-.77,1.9,1.9,0,0,0,.49.13,5.49,5.49,0,0,0,1.26-.45,5.63,5.63,0,0,1,.86-.28,4.84,4.84,0,0,1,.34,1.39l-.15,2.42v1.41a17.8,17.8,0,0,1-.28,2l-.43-.15a2,2,0,0,0-.21.69,2.91,2.91,0,0,0,0,.32l.69-.06a3.87,3.87,0,0,1,.06.58l0,.56v1.22a6.91,6.91,0,0,1-.19,1.59,2.56,2.56,0,0,1,.36.45,8.88,8.88,0,0,1,.08,1.07,1.68,1.68,0,0,0,.26.9,1.71,1.71,0,0,0,.6.41,1.17,1.17,0,0,1-.34.49q-.11.06-1.16.49a4.42,4.42,0,0,1-1.18.58.54.54,0,0,1-.41-.24,1.51,1.51,0,0,1-.28-.94c0-.17,0-.39,0-.64a3.54,3.54,0,0,0-.71-.09.75.75,0,0,0-.3.06s-.21.19-.56.51l-.43.19-.71.41-.66.24a7.11,7.11,0,0,1-2.87.73,5.52,5.52,0,0,1-.9.21,4.2,4.2,0,0,1-.84-.28l-.13,0a2.29,2.29,0,0,0-.77.3l-.62-.75,0,0-.9.28a1.1,1.1,0,0,1-.3,0,3.92,3.92,0,0,1-1.31-.56,2.17,2.17,0,0,1-.77-.79,3.12,3.12,0,0,1-.45-1.48,1.14,1.14,0,0,1,.3-.6l-.47-.21v-2.44a1.17,1.17,0,0,0,.43-.71,3.58,3.58,0,0,0-.32-.71v-1.48l-.06-1.05a1.06,1.06,0,0,1,.36-.6v-.3l-.54.17q.13-1.22.13-1.78c0-.23,0-.44,0-.64l0-.47a2.51,2.51,0,0,0-.09-.73l-.24-.6c0-.14.24-.28.64-.41l1.46-.51.19-.06a1.41,1.41,0,0,1,.54-.28.52.52,0,0,1,.39.15,4.32,4.32,0,0,1,.32.84,4,4,0,0,1-.17.49,5.69,5.69,0,0,0-.17,1.67,7.81,7.81,0,0,0,.13,1,8.76,8.76,0,0,0-.36,1.5A4.27,4.27,0,0,0,481.21,337.27Z" transform="translate(-36.87 -121.39)"/><path d="M500.54,332a1.71,1.71,0,0,1,1.09-1.16,2.93,2.93,0,0,1,1.46-.79c.33,0,.54.08.62.26a8,8,0,0,1,.06,1.24,3.12,3.12,0,0,0,.49,1.16q.86-1.09,1-1.07l.75-.47a2.93,2.93,0,0,1,1.09-.71q.28,0,.56.47A4,4,0,0,1,510,330a1.19,1.19,0,0,1,.41.06l.43.13a5,5,0,0,1,1-.3,7.41,7.41,0,0,1,1.2.24,8.21,8.21,0,0,0,1.07.17c.2.24.34.37.43.39l.49.09q.56.08,1.31,1.2a7,7,0,0,1,.47,3.13,3.09,3.09,0,0,0-1.05.19c-.36.13-.54.25-.54.36s.48.28,1.44.79c.11.06.17.2.17.43a4.11,4.11,0,0,1-.41,1.31.3.3,0,0,0,0,.13c0,.17.15.4.45.69a5.58,5.58,0,0,0-.06.77,4.86,4.86,0,0,0,.32,1.09l0,1.18.06,1-.06.9a2.85,2.85,0,0,0,.21.79,8.53,8.53,0,0,1-.81.56q-.11.06-1,.41c-.12.06-.43.26-.94.6a1.71,1.71,0,0,1-.6-1q0-.15.39-1.67a5,5,0,0,0,0-.49,3.12,3.12,0,0,0,0-.32l.43-.15q1.07-.15,1.09-.26l-.24-.15a5.28,5.28,0,0,0-1.61-.56,2.38,2.38,0,0,1,.32-1.11l.64-.6a1.35,1.35,0,0,0,.51-.9,6,6,0,0,0-1.42-.62l.06-.77-.11-1.14a1,1,0,0,1,.06-.17,4,4,0,0,0,.17-.62q-.34-.39-.34-.51l0-1.07a1,1,0,0,0-.34-.58,1.08,1.08,0,0,1-.34-.73l-.11-.13a1.55,1.55,0,0,1-.58-.24l-.6-1a.48.48,0,0,0-.39-.28,1.5,1.5,0,0,0-.88.43,2.3,2.3,0,0,1-1.41.69,8.11,8.11,0,0,1-.88-.17l-.41.41v.11q-.45-1.07-.9-1.07l-.24.09a3,3,0,0,1-.67.24,4.77,4.77,0,0,0-1.16.58,3.67,3.67,0,0,0-1.22.88,1.82,1.82,0,0,0-.34,1s0,.47,0,1.37v.09q0,.39-.17.49l-1,.71c-.1.07-.15.14-.15.21s.13.29.39.43a6.4,6.4,0,0,1,1,.58.63.63,0,0,1,.11.41s0,.19,0,.43l0,1.59a1.88,1.88,0,0,1-.39.64.45.45,0,0,0,0,.24,1.18,1.18,0,0,0,.45.81l-.06.06q0,.51,0,.69a7.16,7.16,0,0,0,.34,2,1,1,0,0,1-.43.54,4,4,0,0,1-.71.13.69.69,0,0,0-.3.11l-.34.13q-.15,0-.32.3a.56.56,0,0,1-.49.26c-.09,0-.21-.1-.39-.3a.51.51,0,0,1-.17-.36,2,2,0,0,1,0-.39,5.94,5.94,0,0,0,.15-.75l0-1.63a4.41,4.41,0,0,0,.19-.73,2,2,0,0,0-.08-.51,2.92,2.92,0,0,1-.11-.58c0-.06,0-.2,0-.43s0-.26,0-.36,0-.46,0-.81c0-.17,0-.34,0-.51a2.23,2.23,0,0,1,.15-.71l.6-.28a.6.6,0,0,0-.15-.3,2.51,2.51,0,0,0-.69-.11q0-.41,0-.67a3.9,3.9,0,0,1,.09-.64,1.38,1.38,0,0,0,0-.26,12.74,12.74,0,0,0-.24-1.82l.49-.28a7.2,7.2,0,0,1-.45-.71,1.77,1.77,0,0,1-.08-.49A2,2,0,0,0,500.54,332Z" transform="translate(-36.87 -121.39)"/><path d="M523,332a1.71,1.71,0,0,1,1.09-1.16,2.93,2.93,0,0,1,1.46-.79c.33,0,.54.08.62.26a8,8,0,0,1,.06,1.24,3.12,3.12,0,0,0,.49,1.16q.86-1.09,1-1.07l.75-.47a2.93,2.93,0,0,1,1.09-.71q.28,0,.56.47a4,4,0,0,1,2.34-.86,1.19,1.19,0,0,1,.41.06l.43.13a5,5,0,0,1,1-.3,7.41,7.41,0,0,1,1.2.24,8.21,8.21,0,0,0,1.07.17c.2.24.34.37.43.39l.49.09q.56.08,1.31,1.2a7,7,0,0,1,.47,3.13,3.09,3.09,0,0,0-1.05.19c-.36.13-.54.25-.54.36s.48.28,1.44.79c.11.06.17.2.17.43a4.11,4.11,0,0,1-.41,1.31.3.3,0,0,0,0,.13c0,.17.15.4.45.69a5.58,5.58,0,0,0-.06.77,4.86,4.86,0,0,0,.32,1.09l0,1.18.06,1-.06.9a2.85,2.85,0,0,0,.21.79,8.53,8.53,0,0,1-.81.56q-.11.06-1,.41c-.12.06-.43.26-.94.6a1.71,1.71,0,0,1-.6-1q0-.15.39-1.67a5,5,0,0,0,0-.49,3.12,3.12,0,0,0,0-.32l.43-.15q1.07-.15,1.09-.26l-.24-.15a5.28,5.28,0,0,0-1.61-.56,2.38,2.38,0,0,1,.32-1.11l.64-.6a1.35,1.35,0,0,0,.51-.9,6,6,0,0,0-1.42-.62l.06-.77-.11-1.14a1,1,0,0,1,.06-.17,4,4,0,0,0,.17-.62q-.34-.39-.34-.51l0-1.07a1,1,0,0,0-.34-.58,1.08,1.08,0,0,1-.34-.73l-.11-.13a1.55,1.55,0,0,1-.58-.24l-.6-1a.48.48,0,0,0-.39-.28,1.5,1.5,0,0,0-.88.43,2.3,2.3,0,0,1-1.41.69,8.11,8.11,0,0,1-.88-.17l-.41.41v.11q-.45-1.07-.9-1.07l-.24.09a3,3,0,0,1-.67.24,4.77,4.77,0,0,0-1.16.58,3.67,3.67,0,0,0-1.22.88,1.82,1.82,0,0,0-.34,1s0,.47,0,1.37v.09q0,.39-.17.49l-1,.71c-.1.07-.15.14-.15.21s.13.29.39.43a6.4,6.4,0,0,1,1,.58.63.63,0,0,1,.11.41s0,.19,0,.43l0,1.59a1.88,1.88,0,0,1-.39.64.45.45,0,0,0,0,.24,1.18,1.18,0,0,0,.45.81l-.06.06q0,.51,0,.69a7.16,7.16,0,0,0,.34,2,1,1,0,0,1-.43.54,4,4,0,0,1-.71.13.69.69,0,0,0-.3.11l-.34.13q-.15,0-.32.3a.56.56,0,0,1-.49.26c-.09,0-.21-.1-.39-.3a.51.51,0,0,1-.17-.36,2,2,0,0,1,0-.39,5.94,5.94,0,0,0,.15-.75l0-1.63a4.41,4.41,0,0,0,.19-.73,2,2,0,0,0-.08-.51,2.92,2.92,0,0,1-.11-.58c0-.06,0-.2,0-.43s0-.26,0-.36,0-.46,0-.81c0-.17,0-.34,0-.51a2.23,2.23,0,0,1,.15-.71l.6-.28a.6.6,0,0,0-.15-.3,2.51,2.51,0,0,0-.69-.11q0-.41,0-.67a3.9,3.9,0,0,1,.09-.64,1.38,1.38,0,0,0,0-.26,12.74,12.74,0,0,0-.24-1.82l.49-.28a7.2,7.2,0,0,1-.45-.71,1.77,1.77,0,0,1-.08-.49A2,2,0,0,0,523,332Z" transform="translate(-36.87 -121.39)"/><path d="M549.21,338.83a1.78,1.78,0,0,1,.49-.56,6.56,6.56,0,0,1,1.29-.34,9.34,9.34,0,0,1,1.09-.49q.19,0,1.29-.15l.69-.24.41,0,.39,0h.84l1.69-.21a2.5,2.5,0,0,0,.94-.19.94.94,0,0,0,.39-.81,4.19,4.19,0,0,0-.17-.69l1.11-1.39s-.44-.16-1.33-.43a2.62,2.62,0,0,0-.64,0,12.8,12.8,0,0,0-1.09-1.31,13.14,13.14,0,0,0-1.63-.3h-.69a3.08,3.08,0,0,0-.62-.13,4.06,4.06,0,0,0-.49,0l-.41-.51a1.7,1.7,0,0,0-.73.47,1.71,1.71,0,0,1-.67.41,7.88,7.88,0,0,0-1.84,1.05l-.3.19a1.87,1.87,0,0,1-.37.45,1.17,1.17,0,0,1-.6.15,4.11,4.11,0,0,1-.79-.24,4,4,0,0,1-.9-.28,2.35,2.35,0,0,1-.49-.54l.51-.41a1.49,1.49,0,0,1,.49-.34l1-.24.64-.34,1.37-.43.86-.36h.88l1-.28.41,0,.75-.13,1.33,0a6.25,6.25,0,0,1,1.16.3l.51.06,1.18.21a1.46,1.46,0,0,1,.77.47q-.36.32-.36.54c0,.2.08.3.26.3a1.19,1.19,0,0,0,.49-.17,6.2,6.2,0,0,1,.6-.19,1.06,1.06,0,0,1,.3.73l.54.39a2.37,2.37,0,0,1,0,.3l-.06.84a2.9,2.9,0,0,0,.47,1.18h.09q.06.47.17,1l.09,1.65q-.49.3-.49.58c0,.21.19.41.58.58,0,.19,0,.34,0,.47a6.27,6.27,0,0,1-.09.75c0,.16,0,.31,0,.47a8.22,8.22,0,0,0,.24,1.76,1.11,1.11,0,0,0-.39.77,1.6,1.6,0,0,0,.36.84,4.29,4.29,0,0,1,.15.41l.24.58a2.08,2.08,0,0,0-.34.54,2.5,2.5,0,0,1-.67.34l-.81.36-.51.15a7,7,0,0,1-.88.28.73.73,0,0,1-.47-.24l.32-1.44a12,12,0,0,0-1.8.66l-.62.13-.58.13-.79-.09-.79.41-.43,0-1.74.36-.9-.06a3.4,3.4,0,0,1-.9.24,13,13,0,0,1-1.67-.28l-.9-.09-.66-.28a4.39,4.39,0,0,1-1.11-.56,1.61,1.61,0,0,1-.51-.81l-.49-.17a4.91,4.91,0,0,1-.19-.77l-.21-.92v0a1.13,1.13,0,0,1,.28-.62,7.39,7.39,0,0,0,.6-1.09q1.05-1,1.39-1.33a6.77,6.77,0,0,1,1.35-.66,2.32,2.32,0,0,1,.75-.39A2.37,2.37,0,0,1,549.21,338.83Zm-1.33,4.54c-.11.19-.22.38-.32.58a1,1,0,0,0-.21.51l.21.41.6-.51a3.17,3.17,0,0,0,1,.56l.86.24a1.79,1.79,0,0,1,.36.45l.66.09.28,0a1,1,0,0,0,.58-.3.94.94,0,0,0,.51.21,2.8,2.8,0,0,0,.47-.28l.6.13,1.16-.41.56-.26.47.09.81-.34.94-.36a6.6,6.6,0,0,1,.45-.64,1.77,1.77,0,0,1,.75-.34l.13-.69a.9.9,0,0,0,.47-.6,1.39,1.39,0,0,1-.43-.45c0-.24,0-.42,0-.54v-.34q0-.58,0-1a1.4,1.4,0,0,1,0-.24,2.5,2.5,0,0,1,.17-.75,1.08,1.08,0,0,1-.49-.26l-.92,0-.84,0-.64,0h-.41A2.79,2.79,0,0,1,555,338l-.47.15a4.53,4.53,0,0,0-1.26.13,1.15,1.15,0,0,1-.43.11l-.49-.13h0a2.55,2.55,0,0,0-.69.39,10,10,0,0,1-1.12.43,7.73,7.73,0,0,0-2,1.14s-.2.26-.47.64a1.41,1.41,0,0,1-.75.36.54.54,0,0,0-.09.24s.06.13.17.26l.15,1.16A1.67,1.67,0,0,0,547.89,343.38Z" transform="translate(-36.87 -121.39)"/><path d="M576.86,345a4.8,4.8,0,0,0,.88-.6,4.12,4.12,0,0,0,.39-.75,2.6,2.6,0,0,0,.34-.62,2.68,2.68,0,0,0-.11-.58,2.88,2.88,0,0,1-.09-.71q0-1.2.86-1.26l.13-.79-.84-.39.13-3.52-.08-.56.47-.13.11-.47c-.36-.14-.54-.31-.54-.49s0-.34,0-.64a2.53,2.53,0,0,0,0-.32q0-.13-.24-1.29l1.09-1.11-1.14-1.35,0-.06a1,1,0,0,0,.49-.75,1.09,1.09,0,0,0-.47-.73q0-.56,0-2.51a1.55,1.55,0,0,0,0-.41,1,1,0,0,1,0-.13c0-.1,0-.16.09-.19l1.56-.58-1.69-.54.06-.37,0-.54.11-1.24q-.19-1.2-.19-1.39a1.6,1.6,0,0,1,.51-1,2,2,0,0,0-.34-.77.6.6,0,0,1-.09-.3,1.83,1.83,0,0,1,.06-.43q.64-.21.64-.73a.94.94,0,0,0-.17-.43l-.54-.08a2.06,2.06,0,0,0-.15-.49,1.31,1.31,0,0,1-.15-.45,7,7,0,0,1,1.48-.75v-.69l.49-.66c0-.09-.19-.19-.56-.32l-.32-.09q-.49-.13-1.44-.43v-.32q.34-.26.43-.34a4.09,4.09,0,0,1,.79-.56l.9-.24a3.24,3.24,0,0,1,1.14-.43,1,1,0,0,1,.66.28,1.91,1.91,0,0,1-.11.71,5.27,5.27,0,0,0-.3.88,6,6,0,0,0,.34.69.34.34,0,0,1,0,.09,6.85,6.85,0,0,1-.81.71l-.21,1-.94.69q1.26,1.52,1.48,1.8a.84.84,0,0,1,.21.47,3.18,3.18,0,0,1,0,.32,1.62,1.62,0,0,0-.43,1,.42.42,0,0,0,.06.26,2,2,0,0,1,.49,1.11,2.81,2.81,0,0,1,0,.45,6.06,6.06,0,0,0-.13.79l0,.88a1.48,1.48,0,0,1-.09.32c0,.3,0,.5.06.6l0,.45a3.51,3.51,0,0,0,0,.39,2.2,2.2,0,0,1,0,.34.85.85,0,0,1-.17.36,2.28,2.28,0,0,0-.79.49l.06.06a2.56,2.56,0,0,0,.09.79q.06.24.71.54a2.92,2.92,0,0,0-.06.41,9.53,9.53,0,0,0,.09,1,1.61,1.61,0,0,1,0,.81l-.32.6a1.57,1.57,0,0,0-.21.77q0,.28.45.28a3.66,3.66,0,0,0,.6.24q.3,0,.73-.6a1.66,1.66,0,0,0,.36.08l1.5-.32a13.06,13.06,0,0,1,1.65-.56,1.1,1.1,0,0,0,.75.45,2,2,0,0,0,.54-.09l.09-.45a1.63,1.63,0,0,0,.51.13l1,0,.56.3.24,0a6.57,6.57,0,0,1,2.68.45,2,2,0,0,1,.92,1.33.77.77,0,0,0,.6-.24.41.41,0,0,1,.3-.13c.11,0,.28.14.49.43l.66.62a1.77,1.77,0,0,1,.09.36q.06.34.92,1.07a9.13,9.13,0,0,0,.62,2.27,4.92,4.92,0,0,1,.06,1.07,2.25,2.25,0,0,1-.32,1.18l-.17.26-.32.51h-.39q-.28.32-.28.43l0,1.5a1.53,1.53,0,0,1-.3.34q-.13.15-.9,1.16a3.17,3.17,0,0,1-.94.73l-.64.58-.79.69a5.29,5.29,0,0,1-.94.79,19.05,19.05,0,0,1-2.57.92l-.54.17-.41,0a9.63,9.63,0,0,1-1.39.26,1.14,1.14,0,0,1-.88-.32l-.58-.66-.84.69-2.34-.63-.88-.05a5.09,5.09,0,0,1-1.29-.32l-.17,0a7.58,7.58,0,0,0-1.78.66l-.19.09q-.24,0-.32-.39a.34.34,0,0,1,0-.11Zm6.26-.21a3.88,3.88,0,0,1,.54,0,1.87,1.87,0,0,1,.64.24,1.39,1.39,0,0,0,.69.21l1.09-.09.81,0,.56,0,1.71-.49a5.63,5.63,0,0,0,1.71-.83,7.9,7.9,0,0,0,.94-1l.56-.58s.09-.21.24-.58A2.83,2.83,0,0,1,593,341a3.25,3.25,0,0,0,.56-1.39q.06-.62.09-.73a3,3,0,0,0,.11-.3l-.06-.56,1.69-.77-.3-.94a6.12,6.12,0,0,1-.09-.94.57.57,0,0,0-.15-.45,6.33,6.33,0,0,0-.77-.34,7.15,7.15,0,0,0-.62-.9l-.79-.45-.45-.26-.62-.32-.56-.3-1.09-.41-.54-.26a6.78,6.78,0,0,1-1.16-.09q-.3,0-1.39-.11-.62,0-1.82-.26h0l-.13,0h0l-.09,0-.51.11-.79.08s-.31.19-.81.51a10.16,10.16,0,0,0-1.44.66l-.58.26q-.92.43-.92,1.07a.78.78,0,0,0,.15.49l.6.79.24,1.07a3,3,0,0,1,.49,1.12,3.66,3.66,0,0,1-.45,1.07.21.21,0,0,0,0,.11s0,.21.13.6l.09.49.3.77q-.13.86-.13,1l.13,1.22v1.31q0,.19-.6.77a.25.25,0,0,0,0,.17c0,.14.17.34.49.58l1.31-1.05q.41.49.6.49Z" transform="translate(-36.87 -121.39)"/><path d="M605.86,338.83a1.78,1.78,0,0,1,.49-.56,6.56,6.56,0,0,1,1.29-.34,9.34,9.34,0,0,1,1.09-.49q.19,0,1.29-.15l.69-.24.41,0,.39,0h.84l1.69-.21a2.5,2.5,0,0,0,.94-.19.94.94,0,0,0,.39-.81,4.19,4.19,0,0,0-.17-.69l1.11-1.39s-.44-.16-1.33-.43a2.62,2.62,0,0,0-.64,0,12.8,12.8,0,0,0-1.09-1.31,13.14,13.14,0,0,0-1.63-.3h-.69a3.08,3.08,0,0,0-.62-.13,4.06,4.06,0,0,0-.49,0l-.41-.51a1.7,1.7,0,0,0-.73.47,1.71,1.71,0,0,1-.67.41,7.88,7.88,0,0,0-1.84,1.05l-.3.19a1.87,1.87,0,0,1-.37.45,1.17,1.17,0,0,1-.6.15,4.11,4.11,0,0,1-.79-.24,4,4,0,0,1-.9-.28,2.35,2.35,0,0,1-.49-.54l.51-.41a1.49,1.49,0,0,1,.49-.34l1-.24.64-.34,1.37-.43.86-.36h.88l1-.28.41,0,.75-.13,1.33,0a6.25,6.25,0,0,1,1.16.3l.51.06,1.18.21a1.46,1.46,0,0,1,.77.47q-.36.32-.36.54c0,.2.08.3.26.3a1.19,1.19,0,0,0,.49-.17,6.2,6.2,0,0,1,.6-.19,1.06,1.06,0,0,1,.3.73l.54.39a2.37,2.37,0,0,1,0,.3l-.06.84a2.9,2.9,0,0,0,.47,1.18h.09q.06.47.17,1l.09,1.65q-.49.3-.49.58c0,.21.19.41.58.58,0,.19,0,.34,0,.47a6.27,6.27,0,0,1-.09.75c0,.16,0,.31,0,.47a8.22,8.22,0,0,0,.24,1.76,1.11,1.11,0,0,0-.39.77,1.6,1.6,0,0,0,.36.84,4.29,4.29,0,0,1,.15.41l.24.58a2.08,2.08,0,0,0-.34.54,2.5,2.5,0,0,1-.67.34l-.81.36-.51.15a7,7,0,0,1-.88.28.73.73,0,0,1-.47-.24l.32-1.44a12,12,0,0,0-1.8.66l-.62.13-.58.13-.79-.09-.79.41-.43,0-1.74.36-.9-.06a3.4,3.4,0,0,1-.9.24,13,13,0,0,1-1.67-.28l-.9-.09-.66-.28a4.39,4.39,0,0,1-1.11-.56,1.61,1.61,0,0,1-.51-.81l-.49-.17a4.91,4.91,0,0,1-.19-.77l-.21-.92v0a1.13,1.13,0,0,1,.28-.62,7.39,7.39,0,0,0,.6-1.09q1.05-1,1.39-1.33a6.77,6.77,0,0,1,1.35-.66,2.32,2.32,0,0,1,.75-.39A2.37,2.37,0,0,1,605.86,338.83Zm-1.33,4.54c-.11.19-.22.38-.32.58a1,1,0,0,0-.21.51l.21.41.6-.51a3.17,3.17,0,0,0,1,.56l.86.24a1.79,1.79,0,0,1,.36.45l.66.09.28,0a1,1,0,0,0,.58-.3.94.94,0,0,0,.51.21,2.8,2.8,0,0,0,.47-.28l.6.13,1.16-.41.56-.26.47.09.81-.34.94-.36a6.6,6.6,0,0,1,.45-.64,1.77,1.77,0,0,1,.75-.34l.13-.69a.9.9,0,0,0,.47-.6,1.39,1.39,0,0,1-.43-.45c0-.24,0-.42,0-.54v-.34q0-.58,0-1a1.4,1.4,0,0,1,0-.24,2.5,2.5,0,0,1,.17-.75,1.08,1.08,0,0,1-.49-.26l-.92,0-.84,0-.64,0h-.41a2.79,2.79,0,0,1-.64-.34l-.47.15a4.53,4.53,0,0,0-1.26.13,1.15,1.15,0,0,1-.43.11l-.49-.13h0a2.55,2.55,0,0,0-.69.39,10,10,0,0,1-1.12.43,7.73,7.73,0,0,0-2,1.14s-.2.26-.47.64a1.41,1.41,0,0,1-.75.36.54.54,0,0,0-.09.24s.06.13.17.26l.15,1.16A1.67,1.67,0,0,0,604.53,343.38Z" transform="translate(-36.87 -121.39)"/><path d="M624.29,331.78a2.09,2.09,0,0,1,.41-.71,4.26,4.26,0,0,1,1.11-.66,4.86,4.86,0,0,1,1.05-.58.66.66,0,0,1,.58.28l.09.37.17.66a1.49,1.49,0,0,0-.06.36.72.72,0,0,0,.24.45,6.31,6.31,0,0,0,1.16-.54l.9-.3.9-.6.58-.24a3.59,3.59,0,0,1,.51-.24l.47.08h.06a14.75,14.75,0,0,0,1.46-.45,3,3,0,0,1,.64,0,.92.92,0,0,1,.51.11l.45.43.3.06a5.11,5.11,0,0,0,.62-.3l.11,0a1,1,0,0,1,.64.32,1.72,1.72,0,0,1,.49.92,11.52,11.52,0,0,1-1.29,1q-.47.6-.69.6t-.9-.69a6,6,0,0,1-.64,0,2.92,2.92,0,0,1-.92-.26,4.51,4.51,0,0,0-1-.26.82.82,0,0,1-.71.47,5.16,5.16,0,0,0-.75.08l-.86.26a.94.94,0,0,1-.34-.15q-.43.39-1.5,1.16a2,2,0,0,0-.66,1.74v.75c0,.26,0,.47,0,.64s-.17.39-.49.71a1.08,1.08,0,0,1,.36.66,1.92,1.92,0,0,1,0,.36l.32.09.06.64.11,3.84-.09.24-.56.3a3.63,3.63,0,0,0-1.2.32,4.32,4.32,0,0,0,1.35.28l.36-.09a4.15,4.15,0,0,1,.21,1,.85.85,0,0,1-.49.77,4.09,4.09,0,0,1-1.09.21,5.13,5.13,0,0,0-.92.54.53.53,0,0,1-.3.09c-.34,0-.51-.15-.51-.45a10.29,10.29,0,0,1,.32-1.22.81.81,0,0,0,0-.26s0-.35-.11-1a2.08,2.08,0,0,1,.09-.36l.51-.15a3.28,3.28,0,0,0,0-.34,1.12,1.12,0,0,0-.32-.66v-.54a9.42,9.42,0,0,0-.13-1q.06-.71.06-1.2.79-.28.79-.69a1.27,1.27,0,0,0-.06-.34,1.83,1.83,0,0,1-.43.06.63.63,0,0,1-.36-.17V336c0-.11,0-.24,0-.39v-.34a2.31,2.31,0,0,1,.28-.92.91.91,0,0,1-.32-.41s0-.51-.09-1.39A1.91,1.91,0,0,0,624.29,331.78Z" transform="translate(-36.87 -121.39)"/><path d="M639.3,332a1.71,1.71,0,0,1,1.09-1.16,2.93,2.93,0,0,1,1.46-.79c.33,0,.54.08.62.26a8,8,0,0,1,.06,1.24,3.12,3.12,0,0,0,.49,1.16q.86-1.09,1-1.07l.75-.47a2.93,2.93,0,0,1,1.09-.71q.28,0,.56.47a4,4,0,0,1,2.34-.86,1.19,1.19,0,0,1,.41.06l.43.13a5,5,0,0,1,1-.3,7.41,7.41,0,0,1,1.2.24,8.21,8.21,0,0,0,1.07.17c.2.24.34.37.43.39l.49.09q.56.08,1.31,1.2a7,7,0,0,1,.47,3.13,3.09,3.09,0,0,0-1.05.19c-.36.13-.54.25-.54.36s.48.28,1.44.79c.11.06.17.2.17.43a4.11,4.11,0,0,1-.41,1.31.3.3,0,0,0,0,.13c0,.17.15.4.45.69a5.58,5.58,0,0,0-.06.77,4.86,4.86,0,0,0,.32,1.09l0,1.18.06,1-.06.9a2.85,2.85,0,0,0,.21.79,8.53,8.53,0,0,1-.81.56q-.11.06-1,.41c-.12.06-.43.26-.94.6a1.71,1.71,0,0,1-.6-1q0-.15.39-1.67a5,5,0,0,0,0-.49,3.12,3.12,0,0,0,0-.32l.43-.15q1.07-.15,1.09-.26l-.24-.15a5.28,5.28,0,0,0-1.61-.56,2.38,2.38,0,0,1,.32-1.11l.64-.6a1.35,1.35,0,0,0,.51-.9,6,6,0,0,0-1.42-.62l.06-.77-.11-1.14a1,1,0,0,1,.06-.17,4,4,0,0,0,.17-.62q-.34-.39-.34-.51l0-1.07a1,1,0,0,0-.34-.58,1.08,1.08,0,0,1-.34-.73l-.11-.13a1.55,1.55,0,0,1-.58-.24l-.6-1a.48.48,0,0,0-.39-.28,1.5,1.5,0,0,0-.88.43,2.3,2.3,0,0,1-1.41.69,8.11,8.11,0,0,1-.88-.17l-.41.41v.11q-.45-1.07-.9-1.07l-.24.09a3,3,0,0,1-.67.24,4.77,4.77,0,0,0-1.16.58,3.67,3.67,0,0,0-1.22.88,1.82,1.82,0,0,0-.34,1s0,.47,0,1.37v.09q0,.39-.17.49l-1,.71c-.1.07-.15.14-.15.21s.13.29.39.43a6.4,6.4,0,0,1,1,.58.63.63,0,0,1,.11.41s0,.19,0,.43l0,1.59a1.88,1.88,0,0,1-.39.64.45.45,0,0,0,0,.24,1.18,1.18,0,0,0,.45.81l-.06.06q0,.51,0,.69a7.16,7.16,0,0,0,.34,2,1,1,0,0,1-.43.54,4,4,0,0,1-.71.13.69.69,0,0,0-.3.11l-.34.13q-.15,0-.32.3a.56.56,0,0,1-.49.26c-.09,0-.21-.1-.39-.3a.51.51,0,0,1-.17-.36,2,2,0,0,1,0-.39,5.94,5.94,0,0,0,.15-.75l0-1.63a4.41,4.41,0,0,0,.19-.73,2,2,0,0,0-.08-.51,2.92,2.92,0,0,1-.11-.58c0-.06,0-.2,0-.43s0-.26,0-.36,0-.46,0-.81c0-.17,0-.34,0-.51a2.23,2.23,0,0,1,.15-.71l.6-.28a.6.6,0,0,0-.15-.3,2.51,2.51,0,0,0-.69-.11q0-.41,0-.67a3.9,3.9,0,0,1,.09-.64,1.38,1.38,0,0,0,0-.26,12.74,12.74,0,0,0-.24-1.82l.49-.28a7.2,7.2,0,0,1-.45-.71,1.77,1.77,0,0,1-.08-.49A2,2,0,0,0,639.3,332Z" transform="translate(-36.87 -121.39)"/><path d="M674,330.58l.69-.43a4.56,4.56,0,0,0,.45.49,2.53,2.53,0,0,0,.45.21,18.87,18.87,0,0,1,1.84,1.8,3.36,3.36,0,0,1,.71,1q.17.41.36,1c.08.2.19.46.3.77l-.15.15a4.06,4.06,0,0,1-.64-.19l-.81.3-.73-.13-.64.17a15.35,15.35,0,0,0-1.39-.94,4.34,4.34,0,0,0-1,.88q-1.37-.26-1.46-.26a6.12,6.12,0,0,0-.81.06l-.11-.09q-.34,0-1.86,0l-.79.09-1,.09-1,.17-.9,0a13.4,13.4,0,0,1-1.69.45,5.48,5.48,0,0,1-.21,1,2.23,2.23,0,0,1-.51.71q.69.47.73.67a9.7,9.7,0,0,0,.41,1.84l.39.21-.11.79.67.17a2.31,2.31,0,0,0,.56,1.18,2.1,2.1,0,0,0,1.07.39q.11.67.34.79a1.67,1.67,0,0,0,.77.17l.36.56a2.26,2.26,0,0,1,.41,0,8.17,8.17,0,0,1,1.29.54,1.22,1.22,0,0,0,.56.13,4.67,4.67,0,0,0,1.09-.26l1.37-.15,1.05-.3a4.59,4.59,0,0,0,1-.13,11.14,11.14,0,0,0,1.33-.75,4.82,4.82,0,0,0,1.09-.79,7.21,7.21,0,0,0,.73-1,.67.67,0,0,1,.6-.26,1.09,1.09,0,0,1,.56.28,4.22,4.22,0,0,1-.28,1q-.9,1.52-1.14,2a1.17,1.17,0,0,0-.47-.13,2.25,2.25,0,0,0-.71.43,2,2,0,0,1-1,.3,15.74,15.74,0,0,1-1.84.43,9,9,0,0,0-1.11.15l-.69.21-1.26-.19-.75.13-.36,0a7,7,0,0,1-.79.06q-.28,0-1.56-.15l-.41,0-.45-.28q-1.61-.49-1.78-.58a8.93,8.93,0,0,1-.73-.64s-.28-.19-.75-.47-.61-.43-.64-.56l-.39-.69a5.34,5.34,0,0,0-.73-.81,1.14,1.14,0,0,0,.21-.51,12.77,12.77,0,0,0-.56-1.2,6,6,0,0,1-.15-1.82,6.59,6.59,0,0,1,.3-1.54,4.3,4.3,0,0,1,.36-1l.73-.86.47-1,1.67-1.54,1.56-1,1.59-1.09.58-.11,1.63-.51,1-.09a10.81,10.81,0,0,1,1.39-.47A1.61,1.61,0,0,1,674,330.58Zm-2.49,3.21.36.45.58-.11a5.74,5.74,0,0,0,1.16-.3l1.22.11s0-.07.11-.21a1.31,1.31,0,0,0,0-.21.78.78,0,0,0-.26-.47l-.21-.26q-.52-.69-.64-.64l-.71-.34a1.61,1.61,0,0,1-.41-.49,18,18,0,0,0-2.12-.08l-.43,0-.73.43a9.72,9.72,0,0,1-1.18.3q-.9.32-1.59.62c-.1.07-.38.31-.84.73l-.49.39v.13l0,0,1.56.62.47.47.84-1a.37.37,0,0,1,.24-.09s.39.09,1.05.28h0a7.34,7.34,0,0,0,1.22-.21A3.88,3.88,0,0,1,671.49,333.79Z" transform="translate(-36.87 -121.39)"/><path d="M683.34,331.31q.17-.83.58-.83h0l1,.06h0l1.37-.19v-.51q0-2-.09-3.3a2.85,2.85,0,0,0-.26-1l-.21-.45a.8.8,0,0,1-.09-.36q0-.32.51-.77a4,4,0,0,1,2-1q.28-.58.6-.58a.27.27,0,0,1,.21.11,1.18,1.18,0,0,1,.3.84s-.06,1.14-.19,3.39q-.26.88-.32,1a1.33,1.33,0,0,1-.49.62,2.75,2.75,0,0,0,.13.84H689l-.13,1.09a15.44,15.44,0,0,1,2.23.51,6.53,6.53,0,0,0,.73,0,5.19,5.19,0,0,0,1.26-.26l1.42-.13a6.51,6.51,0,0,1,1.29-.43,4.62,4.62,0,0,1,.69.06,3.9,3.9,0,0,1-.13.86q-.08.32-1.35,1.09a1.63,1.63,0,0,0-.43.32,3.24,3.24,0,0,1-.34.39,1,1,0,0,1-.51.09,1,1,0,0,1-.47-.09l-.88-.47-.54-.13-.64-.47-1.09.84-.94-.13a1.1,1.1,0,0,0-.43.21,10.88,10.88,0,0,1,.17,1.74c0,.23,0,.56,0,1q-.79.13-.79.64a1.67,1.67,0,0,0,.08.47,4.86,4.86,0,0,1,.79.13l0,2.68a2.19,2.19,0,0,0-.54-.09c-.26,0-.39.11-.39.32a1.4,1.4,0,0,0,.19.62,1,1,0,0,1,.51-.19c.21,0,.32.14.32.41l-.06.86v0q0,.88.06,1.26a2.23,2.23,0,0,0,.26.81l.26.45a.6.6,0,0,1,0,.26,3.67,3.67,0,0,1,0,.49,2.89,2.89,0,0,0,1.48.39,3,3,0,0,0,1.37-.34,6.3,6.3,0,0,0,.6-.34l1.18-1.07a3.35,3.35,0,0,1,1.07-.73,1.22,1.22,0,0,1,.54.19c0,.27-.07.46-.09.56a3.78,3.78,0,0,1-.3,1.3,4,4,0,0,1-1.31.55,20.78,20.78,0,0,1-2.66,1l-.73.24a4,4,0,0,1-.84.41c-.13,0-.27-.13-.43-.39l-.39-.11-.24.54a3.62,3.62,0,0,1-.51,0,2.15,2.15,0,0,1-1.33-.73,3.53,3.53,0,0,1-.56-.71,4.49,4.49,0,0,1-.17-.56A5.12,5.12,0,0,1,686,344c0-.13,0-.33,0-.62s0-.71,0-1.44a1.52,1.52,0,0,1,.39-1.07,3.3,3.3,0,0,1-.13-1q-.11-1-.13-3.75.51-.32.51-.62a2.35,2.35,0,0,0,0-.41l-.62-.15,0-.19v0a3.27,3.27,0,0,1,.06-.45,9.8,9.8,0,0,0,.13-1.93,6.75,6.75,0,0,0-1.29-.19l-1.11.13-.45,0-.64.19c-.2,0-.3-.09-.3-.28S682.74,331.64,683.34,331.31Z" transform="translate(-36.87 -121.39)"/><path class="cls-1" d="M58.71,181.06h44.93a1.6,1.6,0,0,1,1.6,1.6v35.47a1.6,1.6,0,0,1-1.6,1.6H58.71a1.61,1.61,0,0,1-1.61-1.61V182.66A1.61,1.61,0,0,1,58.71,181.06Z"/><path d="M140.51,302.82a1.23,1.23,0,0,1,1.23,1.23v35.47a1.23,1.23,0,0,1-1.23,1.23H95.57a1.23,1.23,0,0,1-1.23-1.23V304.05a1.23,1.23,0,0,1,1.23-1.23h44.93m0-.75H95.57a2,2,0,0,0-2,2v35.47a2,2,0,0,0,2,2h44.93a2,2,0,0,0,2-2V304.05a2,2,0,0,0-2-2Z" transform="translate(-36.87 -121.39)"/><rect x="65.01" y="189.46" width="1.76" height="30.15"/><path d="M103.14,311.35V340.5h-.76V311.35h.76m1-1h-2.76V341.5h2.76V310.35Z" transform="translate(-36.87 -121.39)"/><rect x="95.57" y="189.46" width="1.76" height="30.15"/><path d="M133.7,311.35V340.5h-.76V311.35h.76m1-1h-2.76V341.5h2.76V310.35Z" transform="translate(-36.87 -121.39)"/><rect x="79.6" y="189.46" width="1.76" height="30.15"/><path d="M117.73,311.35V340.5H117V311.35h.76m1-1H116V341.5h2.76V310.35Z" transform="translate(-36.87 -121.39)"/><path class="cls-1" d="M117.79,316.16a57.46,57.46,0,1,1,57.46-57.46A57.53,57.53,0,0,1,117.79,316.16Z" transform="translate(-36.87 -121.39)"/><path d="M117.79,201.73a57,57,0,1,1-57,57,57,57,0,0,1,57-57m0-1a58,58,0,1,0,58,58,58,58,0,0,0-58-58Z" transform="translate(-36.87 -121.39)"/><path d="M110.75,213.57l-72.5,35.1a.61.61,0,0,1-.67-1L87.6,203a.61.61,0,0,0,.2-.44l2.65-80.08a.61.61,0,0,1,1.16-.23l33,71.84a.61.61,0,0,0,.36.32l67.42,23.13a.61.61,0,0,1-.24,1.19l-81.13-5.22A.61.61,0,0,0,110.75,213.57Z" transform="translate(-36.87 -121.39)"/><path d="M38,249.24a1.12,1.12,0,0,1-.73-1.94l50-44.67L90,122.47a1.11,1.11,0,0,1,2.12-.43l33,71.84,67.49,23.19a1.11,1.11,0,0,1-.43,2.16L111,214H111l-72.5,35.1A1.14,1.14,0,0,1,38,249.24Zm53.1-126.85h0a.1.1,0,0,0-.09.1l-2.65,80.08a1.12,1.12,0,0,1-.37.79L37.91,248a.11.11,0,0,0,.12.18l72.5-35.1a1.08,1.08,0,0,1,.56-.11l81.13,5.22a.1.1,0,0,0,.12-.09.1.1,0,0,0-.07-.13l-67.42-23.13a1.11,1.11,0,0,1-.65-.59l-33-71.84A.1.1,0,0,0,91.07,122.39Z" transform="translate(-36.87 -121.39)"/><rect x="97.37" y="193.83" width="20.9" height="13.8" rx="1.28" ry="1.28" transform="translate(-73.46 -96.91) rotate(-11.09)"/><path class="cls-2" d="M99.9,210.29a2.29,2.29,0,0,1-2.24-1.84l-2.16-11a2.28,2.28,0,0,1,1.8-2.68l18-3.53A2.29,2.29,0,0,1,118,193l2.16,11a2.29,2.29,0,0,1-1.8,2.68h0l-18,3.53A2.32,2.32,0,0,1,99.9,210.29Zm15.83-17.12h-.05l-18,3.53a.28.28,0,0,0-.18.12.28.28,0,0,0,0,.21l2.16,11a.28.28,0,0,0,.33.22l18-3.53h0a.28.28,0,0,0,.22-.33l-2.16-11A.28.28,0,0,0,115.73,193.18Z" transform="translate(-36.87 -121.39)"/><path class="cls-1" d="M153.61,387l-3.81,6.56a3.33,3.33,0,0,1-4.77,1.08l-14.7-10.08-.2-.13L98.06,365.61l-.31-.16L90,361.94a3.33,3.33,0,0,0-.48-.18l-10.88-3a3.33,3.33,0,0,1-2-4.88l6.53-11.26a3.33,3.33,0,0,1,5.21-.72l8,7.81.28.24L103,354.8l.32.22,32.5,19.79.35.19,16,7.27A3.33,3.33,0,0,1,153.61,387Z" transform="translate(-36.87 -121.39)"/><path d="M146.92,395.69a3.85,3.85,0,0,1-2.17-.67L130,384.94l-.17-.11L97.81,366l-.26-.14-7.73-3.51a2.82,2.82,0,0,0-.41-.15l-10.88-3a3.83,3.83,0,0,1-2.29-5.62l6.53-11.26a3.83,3.83,0,0,1,6-.82l8,7.81.23.21,6.26,4.88.27.19,32.5,19.79.3.16,16,7.27a3.83,3.83,0,0,1,1.73,5.41l-3.81,6.56a3.82,3.82,0,0,1-3.31,1.91ZM86.09,341.43l-.39,0a2.81,2.81,0,0,0-2.07,1.38L77.1,354.1a2.83,2.83,0,0,0,1.69,4.15l10.88,3a3.82,3.82,0,0,1,.56.2L98,365l.35.18L130.38,384l.23.14,14.7,10.08a2.83,2.83,0,0,0,4.05-.92l3.81-6.56a2.83,2.83,0,0,0-1.28-4l-16-7.27a3.81,3.81,0,0,1-.4-.21L103,355.45a3.78,3.78,0,0,1-.36-.25l-6.26-4.88a3.89,3.89,0,0,1-.32-.28l-8-7.81A2.81,2.81,0,0,0,86.09,341.43Z" transform="translate(-36.87 -121.39)"/><path class="cls-1" d="M87.32,341.35,77.63,358a2.29,2.29,0,0,1-1.75,1.13l-6,.61a2.29,2.29,0,0,1-2.22-3.43l13.33-23a2.29,2.29,0,0,1,4.1.27l2.37,5.68A2.29,2.29,0,0,1,87.32,341.35Z" transform="translate(-36.87 -121.39)"/><path d="M69.62,360.29a2.79,2.79,0,0,1-2.41-4.2l13.33-23a2.74,2.74,0,0,1,2.6-1.39,2.78,2.78,0,0,1,2.4,1.71l2.37,5.68a2.81,2.81,0,0,1-.16,2.48l-9.68,16.69a2.8,2.8,0,0,1-2.14,1.38l-6,.61Zm13.33-27.56a1.76,1.76,0,0,0-1.54.89l-13.33,23a1.77,1.77,0,0,0,0,1.87,1.79,1.79,0,0,0,1.69.81l6-.61a1.8,1.8,0,0,0,1.37-.88l9.68-16.69a1.8,1.8,0,0,0,.1-1.59l-2.37-5.68a1.76,1.76,0,0,0-1.54-1.1Z" transform="translate(-36.87 -121.39)"/><polygon class="cls-1" points="147.18 221.7 144.78 221.31 143.1 223.06 142.73 220.66 140.55 219.61 142.72 218.52 143.04 216.11 144.75 217.84 147.14 217.41 146.03 219.56 147.18 221.7"/><path d="M179.8,345l-.43-2.77L176.85,341l2.5-1.26.38-2.78,2,2,2.76-.5L183.18,341l1.33,2.47-2.77-.45ZM178,341l1.85.89.31,2,1.42-1.48,2,.33-1-1.81.94-1.82-2,.36L180.09,338l-.28,2Z" transform="translate(-36.87 -121.39)"/><polygon class="cls-1" points="165.34 208.42 161.6 207.81 158.98 210.55 158.4 206.8 154.99 205.15 158.37 203.45 158.88 199.69 161.55 202.38 165.28 201.71 163.55 205.08 165.34 208.42"/><path d="M195.67,332.48l-.63-4.12-3.75-1.81,3.72-1.87.56-4.13,2.93,3,4.1-.74-1.91,3.7,2,3.67-4.11-.67Zm-3.25-5.94,3.07,1.49.52,3.38,2.36-2.46,3.37.55-1.61-3,1.56-3-3.36.61-2.4-2.43-.46,3.38Z" transform="translate(-36.87 -121.39)"/><polygon class="cls-1" points="135.22 204.26 132.16 203.76 130.02 206 129.55 202.94 126.76 201.59 129.53 200.2 129.94 197.13 132.12 199.33 135.17 198.78 133.75 201.53 135.22 204.26"/><path d="M166.72,327.93l-.53-3.43L163.07,323l3.1-1.56.47-3.44,2.44,2.46,3.42-.62-1.59,3.08,1.64,3.06-3.43-.56Zm-2.52-5,2.45,1.18.41,2.69,1.88-2,2.68.44-1.29-2.4,1.25-2.42-2.68.48L167,319.06l-.37,2.69Z" transform="translate(-36.87 -121.39)"/><polygon class="cls-1" points="18.53 230.84 15.06 230.28 12.62 232.81 12.09 229.34 8.92 227.81 12.06 226.22 12.54 222.74 15.02 225.24 18.48 224.61 16.87 227.74 18.53 230.84"/><path d="M49.32,354.75l-.59-3.85-3.51-1.69,3.48-1.75.53-3.86L52,346.36l3.83-.69L54,349.13l1.84,3.43L52,351.93Zm-3-5.55,2.83,1.37.48,3.11,2.18-2.27,3.1.51-1.49-2.77,1.44-2.79-3.09.56-2.21-2.23-.43,3.11Z" transform="translate(-36.87 -121.39)"/><polygon class="cls-1" points="10.09 209.15 8.14 208.83 6.77 210.26 6.47 208.31 4.69 207.44 6.45 206.56 6.72 204.6 8.11 206 10.06 205.65 9.15 207.41 10.09 209.15"/><path d="M43.47,332.19l-.36-2.32-2.12-1,2.1-1.06.32-2.33,1.65,1.67,2.31-.42L46.3,328.8l1.11,2.07-2.32-.38Zm-1.34-3.36,1.44.7.24,1.58L44.92,330l1.58.26-.76-1.41.73-1.42-1.57.28-1.13-1.14-.22,1.58Z" transform="translate(-36.87 -121.39)"/><polygon class="cls-1" points="32.76 211.12 28.66 210.45 25.79 213.45 25.16 209.35 21.42 207.54 25.13 205.67 25.69 201.56 28.61 204.51 32.69 203.77 30.79 207.46 32.76 211.12"/><path d="M62.49,335.38l-.69-4.47-4.07-2,4-2,.61-4.48,3.19,3.21,4.45-.8-2.07,4,2.14,4-4.47-.73Zm-3.63-6.45,3.4,1.64.57,3.73,2.61-2.72,3.73.61-1.78-3.33,1.73-3.36-3.71.67-2.66-2.68-.51,3.74Z" transform="translate(-36.87 -121.39)"/><rect x="122.14" y="245.91" width="40.7" height="4.58" rx="0.43" ry="0.43" transform="translate(180.37 -149.45) rotate(45)"/><path d="M155.26,264.28a.67.67,0,0,1-.48-.2L126.6,235.91a.68.68,0,0,1,0-1l2.64-2.64a.7.7,0,0,1,1,0l28.18,28.18a.68.68,0,0,1,0,1l-2.64,2.64A.67.67,0,0,1,155.26,264.28Zm-.12-.55a.18.18,0,0,0,.25,0l2.64-2.64a.18.18,0,0,0,0-.25l-28.18-28.18a.18.18,0,0,0-.25,0L127,235.3a.18.18,0,0,0,0,.25Z" transform="translate(-36.87 -121.39)"/><rect x="122.14" y="245.91" width="40.7" height="4.58" rx="0.43" ry="0.43" transform="translate(388.27 171.7) rotate(128.88)"/><path d="M131.43,265.55a.67.67,0,0,1-.42-.15l-2.9-2.34a.68.68,0,0,1-.1-1l25-31a.67.67,0,0,1,.46-.25.66.66,0,0,1,.5.15l2.9,2.34a.68.68,0,0,1,.1,1l-25,31a.67.67,0,0,1-.45.25Zm-3-3.13a.18.18,0,0,0,0,.25l2.9,2.34a.18.18,0,0,0,.25,0l25-31a.18.18,0,0,0,0-.25l-2.9-2.34a.18.18,0,0,0-.13,0,.17.17,0,0,0-.12.06Z" transform="translate(-36.87 -121.39)"/><rect x="73.24" y="245.91" width="40.7" height="4.58" rx="0.43" ry="0.43" transform="translate(166.05 -114.88) rotate(45)"/><path d="M106.36,264.28a.68.68,0,0,1-.48-.2h0L77.71,235.91a.68.68,0,0,1,0-1l2.64-2.64a.7.7,0,0,1,1,0l28.18,28.18a.68.68,0,0,1,0,1l-2.64,2.64A.68.68,0,0,1,106.36,264.28Zm-.12-.55a.18.18,0,0,0,.25,0l2.64-2.64a.18.18,0,0,0,0-.25L80.95,232.67a.18.18,0,0,0-.25,0l-2.64,2.64a.18.18,0,0,0,0,.25l28.18,28.18Z" transform="translate(-36.87 -121.39)"/><rect x="73.24" y="245.91" width="40.7" height="4.58" rx="0.43" ry="0.43" transform="translate(308.68 209.76) rotate(128.88)"/><path d="M82.54,265.55a.67.67,0,0,1-.42-.15l-2.9-2.34a.68.68,0,0,1-.1-1l25-31a.67.67,0,0,1,.46-.25.66.66,0,0,1,.5.15l2.9,2.34a.68.68,0,0,1,.1,1l-25,31a.68.68,0,0,1-.45.25Zm22.11-34.21h0a.17.17,0,0,0-.12.06l-25,31a.18.18,0,0,0,0,.25l2.9,2.34a.17.17,0,0,0,.25,0l25-31a.18.18,0,0,0,0-.25l-2.9-2.34A.17.17,0,0,0,104.65,231.34Z" transform="translate(-36.87 -121.39)"/><path class="cls-1" d="M81.16,386.69,85,393.25a3.33,3.33,0,0,0,4.77,1.08l14.7-10.08.2-.13,32.07-18.79.31-.16,7.73-3.51a3.33,3.33,0,0,1,.48-.18l10.88-3a3.33,3.33,0,0,0,2-4.88l-6.53-11.26a3.33,3.33,0,0,0-5.21-.72l-8,7.81-.28.24-6.26,4.88-.32.22L99,374.52l-.35.19-16,7.27A3.33,3.33,0,0,0,81.16,386.69Z" transform="translate(-36.87 -121.39)"/><path d="M87.84,395.41a3.77,3.77,0,0,1-.84-.09,3.84,3.84,0,0,1-2.47-1.82l-3.81-6.56a3.83,3.83,0,0,1,1.73-5.41l16-7.27.3-.16,32.5-19.79.27-.18,6.26-4.88.23-.2,8-7.81a3.83,3.83,0,0,1,6,.82l6.53,11.26a3.83,3.83,0,0,1-2.29,5.62l-10.88,3a3,3,0,0,0-.41.15l-7.73,3.51-.26.13-32.07,18.79-.17.11L90,394.74A3.84,3.84,0,0,1,87.84,395.41Zm-6.25-9L85.4,393a2.83,2.83,0,0,0,4.05.92l14.7-10.08.23-.15,32.07-18.79.35-.18,7.73-3.51a3.85,3.85,0,0,1,.55-.2L156,358a2.83,2.83,0,0,0,1.69-4.15l-6.53-11.26a2.83,2.83,0,0,0-4.43-.61l-8,7.81a3.84,3.84,0,0,1-.32.28l-6.26,4.88a3.9,3.9,0,0,1-.36.25l-32.5,19.79a3.48,3.48,0,0,1-.4.21l-16,7.27a2.83,2.83,0,0,0-1.28,4Z" transform="translate(-36.87 -121.39)"/><path class="cls-1" d="M147.45,341.06l9.68,16.69a2.29,2.29,0,0,0,1.75,1.13l6,.61a2.29,2.29,0,0,0,2.22-3.43l-13.33-23a2.29,2.29,0,0,0-4.1.27L147.31,339A2.29,2.29,0,0,0,147.45,341.06Z" transform="translate(-36.87 -121.39)"/><path d="M165.14,360h-.29l-6-.61A2.8,2.8,0,0,1,156.7,358L147,341.31a2.81,2.81,0,0,1-.16-2.48l2.37-5.68a2.79,2.79,0,0,1,5-.32l13.33,23a2.79,2.79,0,0,1-2.41,4.2Zm-13.33-27.56h-.13a1.76,1.76,0,0,0-1.54,1.1l-2.37,5.68a1.8,1.8,0,0,0,.1,1.59l9.68,16.69a1.8,1.8,0,0,0,1.37.89l6,.61a1.79,1.79,0,0,0,1.73-2.69l-13.33-23A1.76,1.76,0,0,0,151.81,332.44Z" transform="translate(-36.87 -121.39)"/></svg>