<?xml version="1.0" encoding="utf-8"?>
<!-- Generator: Adobe Illustrator 20.1.0, SVG Export Plug-In . SVG Version: 6.00 Build 0)  -->
<svg version="1.1" id="Layer_1" xmlns="http://www.w3.org/2000/svg" xmlns:xlink="http://www.w3.org/1999/xlink" x="0px" y="0px"
	 viewBox="0 0 800 600" style="enable-background:new 0 0 800 600;" xml:space="preserve">
<style type="text/css">
	.st0{font-family:'Papyrus-Regular';}
	.st1{font-size:90.7151px;}
	.st2{font-size:43.8944px;}
	.st3{fill:#FFFFFF;}
	.st4{stroke:#000000;stroke-miterlimit:10;}
	.st5{stroke:#897E7E;stroke-width:2;stroke-miterlimit:10;}
	.st6{fill:#FFFFFF;stroke:#000000;stroke-miterlimit:10;}
	.st7{fill:#FFFFFF;stroke:#000000;stroke-width:0.5;stroke-miterlimit:10;}
	.st8{stroke:#000000;stroke-width:0.5;stroke-miterlimit:10;}
</style>
<g>
	<text transform="matrix(1 0 0 1 204.6587 315.8535)"><tspan x="0" y="0" class="st0 st1">Hans &amp; Greta</tspan><tspan x="82.1" y="52.7" class="st0 st2">Det försvunna barnet</tspan></text>
	<g>
		<path class="st3" d="M90.6,363.1c-0.9,0-1.6-0.7-1.6-1.6v-35.5c0-0.9,0.7-1.6,1.6-1.6h44.9c0.9,0,1.6,0.7,1.6,1.6v35.5
			c0,0.9-0.7,1.6-1.6,1.6H90.6z"/>
		<path d="M135.5,324.8c0.7,0,1.2,0.6,1.2,1.2v35.5c0,0.7-0.6,1.2-1.2,1.2H90.6c-0.7,0-1.2-0.6-1.2-1.2v-35.5c0-0.7,0.6-1.2,1.2-1.2
			H135.5 M135.5,324.1H90.6c-1.1,0-2,0.9-2,2v35.5c0,1.1,0.9,2,2,2h44.9c1.1,0,2-0.9,2-2v-35.5C137.5,325,136.6,324.1,135.5,324.1
			L135.5,324.1z"/>
	</g>
	<g>
		<g>
			<rect x="96.9" y="332.9" width="1.8" height="30.2"/>
			<path d="M98.1,333.4v29.2h-0.8v-29.2H98.1 M99.1,332.4h-2.8v31.2h2.8V332.4L99.1,332.4z"/>
		</g>
		<g>
			<rect x="127.4" y="332.9" width="1.8" height="30.2"/>
			<path d="M128.7,333.4v29.2h-0.8v-29.2H128.7 M129.7,332.4h-2.8v31.2h2.8V332.4L129.7,332.4z"/>
		</g>
		<g>
			<rect x="111.5" y="332.9" width="1.8" height="30.2"/>
			<path d="M112.7,333.4v29.2H112v-29.2H112.7 M113.7,332.4H111v31.2h2.8V332.4L113.7,332.4z"/>
		</g>
	</g>
	<g>
		<path class="st3" d="M112.8,338.2c-31.7,0-57.5-25.8-57.5-57.5s25.8-57.5,57.5-57.5s57.5,25.8,57.5,57.5S144.5,338.2,112.8,338.2z
			"/>
		<path d="M112.8,223.7c31.4,0,57,25.6,57,57s-25.6,57-57,57s-57-25.6-57-57S81.4,223.7,112.8,223.7 M112.8,222.7c-32,0-58,26-58,58
			s26,58,58,58s58-26,58-58S144.8,222.7,112.8,222.7L112.8,222.7z"/>
	</g>
	<path class="st4" d="M105.8,235.6l-72.5,35.1c-0.6,0.3-1.2-0.5-0.7-1l50-44.7c0.1-0.1,0.2-0.3,0.2-0.4l2.6-80.1
		c0-0.6,0.9-0.8,1.2-0.2l33,71.8c0.1,0.2,0.2,0.3,0.4,0.3l67.4,23.1c0.7,0.2,0.5,1.2-0.2,1.2l-81.1-5.2
		C106,235.5,105.8,235.5,105.8,235.6z"/>
	<path class="st5" d="M113.1,227.7l-18,3.5c-0.7,0.1-1.4-0.3-1.5-1l-2.2-11c-0.1-0.7,0.3-1.4,1-1.5l18-3.5c0.7-0.1,1.4,0.3,1.5,1
		l2.2,11C114.3,226.9,113.8,227.6,113.1,227.7z"/>
	<g>
		<path class="st6" d="M148.6,409l-3.8,6.6c-1,1.7-3.2,2.2-4.8,1.1l-14.7-10.1c-0.1,0-0.1-0.1-0.2-0.1l-32.1-18.8
			c-0.1-0.1-0.2-0.1-0.3-0.2l-7.7-3.5c-0.2-0.1-0.3-0.1-0.5-0.2l-10.9-3c-2.1-0.6-3.1-3-2-4.9l6.5-11.3c1.1-1.9,3.7-2.2,5.2-0.7
			l8,7.8c0.1,0.1,0.2,0.2,0.3,0.2l6.3,4.9c0.1,0.1,0.2,0.2,0.3,0.2l32.5,19.8c0.1,0.1,0.2,0.1,0.4,0.2l16,7.3
			C148.9,405.1,149.6,407.3,148.6,409z"/>
		<path class="st6" d="M82.3,363.3L72.6,380c-0.4,0.6-1,1.1-1.8,1.1l-6,0.6c-1.9,0.2-3.2-1.8-2.2-3.4l13.3-23c1-1.6,3.4-1.5,4.1,0.3
			l2.4,5.7C82.7,362,82.7,362.7,82.3,363.3z"/>
	</g>
	<g>
		<polygon class="st7" points="179,365.1 176.7,364.7 175,366.5 174.6,364.1 172.4,363 174.6,361.9 174.9,359.5 176.6,361.2 
			179,360.8 177.9,363 		"/>
		<polygon class="st7" points="197.2,351.8 193.5,351.2 190.8,353.9 190.3,350.2 186.9,348.5 190.2,346.8 190.8,343.1 193.4,345.8 
			197.2,345.1 195.4,348.5 		"/>
		<polygon class="st7" points="167.1,347.7 164,347.2 161.9,349.4 161.4,346.3 158.6,345 161.4,343.6 161.8,340.5 164,342.7 
			167,342.2 165.6,344.9 		"/>
	</g>
	<g>
		<polygon class="st7" points="50.4,374.2 46.9,373.7 44.5,376.2 44,372.7 40.8,371.2 43.9,369.6 44.4,366.1 46.9,368.6 50.3,368 
			48.7,371.1 		"/>
		<polygon class="st7" points="42,352.5 40,352.2 38.6,353.6 38.3,351.7 36.6,350.8 38.3,349.9 38.6,348 40,349.4 41.9,349 
			41,350.8 		"/>
		<polygon class="st7" points="64.6,354.5 60.5,353.8 57.7,356.8 57,352.7 53.3,350.9 57,349.1 57.6,345 60.5,347.9 64.6,347.2 
			62.7,350.9 		"/>
	</g>
	<g>
		<path class="st8" d="M150,285.9l-28.2-28.2c-0.2-0.2-0.2-0.4,0-0.6l2.6-2.6c0.2-0.2,0.4-0.2,0.6,0l28.2,28.2
			c0.2,0.2,0.2,0.4,0,0.6l-2.6,2.6C150.4,286.1,150.1,286.1,150,285.9z"/>
		<path class="st8" d="M123.2,284.3l25-31c0.1-0.2,0.4-0.2,0.6-0.1l2.9,2.3c0.2,0.1,0.2,0.4,0.1,0.6l-25,31
			c-0.1,0.2-0.4,0.2-0.6,0.1l-2.9-2.3C123.1,284.7,123.1,284.5,123.2,284.3z"/>
	</g>
	<g>
		<path class="st8" d="M101.1,285.9l-28.2-28.2c-0.2-0.2-0.2-0.4,0-0.6l2.6-2.6c0.2-0.2,0.4-0.2,0.6,0l28.2,28.2
			c0.2,0.2,0.2,0.4,0,0.6l-2.6,2.6C101.5,286.1,101.2,286.1,101.1,285.9z"/>
		<path class="st8" d="M74.3,284.3l25-31c0.1-0.2,0.4-0.2,0.6-0.1l2.9,2.3c0.2,0.1,0.2,0.4,0.1,0.6l-25,31c-0.1,0.2-0.4,0.2-0.6,0.1
			l-2.9-2.3C74.2,284.7,74.2,284.5,74.3,284.3z"/>
	</g>
	<g>
		<path class="st6" d="M76.2,408.7l3.8,6.6c1,1.7,3.2,2.2,4.8,1.1l14.7-10.1c0.1,0,0.1-0.1,0.2-0.1l32.1-18.8
			c0.1-0.1,0.2-0.1,0.3-0.2l7.7-3.5c0.2-0.1,0.3-0.1,0.5-0.2l10.9-3c2.1-0.6,3.1-3,2-4.9l-6.5-11.3c-1.1-1.9-3.7-2.2-5.2-0.7l-8,7.8
			c-0.1,0.1-0.2,0.2-0.3,0.2l-6.3,4.9c-0.1,0.1-0.2,0.2-0.3,0.2L94,396.5c-0.1,0.1-0.2,0.1-0.4,0.2l-16,7.3
			C75.9,404.8,75.2,407,76.2,408.7z"/>
		<path class="st6" d="M142.4,363.1l9.7,16.7c0.4,0.6,1,1.1,1.8,1.1l6,0.6c1.9,0.2,3.2-1.8,2.2-3.4l-13.3-23c-1-1.6-3.4-1.5-4.1,0.3
			l-2.4,5.7C142,361.7,142.1,362.4,142.4,363.1z"/>
	</g>
</g>
</svg>
